<?xml version="1.0" encoding="utf-8"?>
<!-- Generator: Adobe Illustrator 19.0.0, SVG Export Plug-In . SVG Version: 6.00 Build 0)  -->
<svg version="1.1" id="Layer_1" xmlns="http://www.w3.org/2000/svg" xmlns:xlink="http://www.w3.org/1999/xlink" x="0px" y="0px"
	 viewBox="-84 304.1 444.6 184.9" style="enable-background:new -84 304.1 444.6 184.9;" xml:space="preserve">
<style type="text/css">
	.st0{fill:#FFFFFF;}
	.st1{enable-background:new    ;}
	.st2{fill:#0075C9;}
	.st3{fill:#FEFEFE;}
</style>
<title>Logo_Exequielldpi</title>
<g>
	<g id="Capa_1">
		<g>
			<rect x="-82.7" y="430.8" class="st0" width="440.1" height="2"/>
		</g>
		<path class="st0" d="M203.9,489H-68.3c-8,0-14.5-5.7-14.5-12.7v-44.4h368.6l-70.6,53.5C212,487.7,208,489,203.9,489z"/>
		<g class="st1">
			<path class="st2" d="M-52.2,476.1h-5.3v-25.6l-7.8,2.7v-4.5l12.4-4.6h0.7V476.1z"/>
			<path class="st2" d="M-40.1,483.3l-2.9-1.7c0.8-1.3,1.4-2.5,1.7-3.5s0.5-2,0.5-3V471h4.8l0,3.8c0,1.5-0.4,3.1-1.2,4.7
				C-37.9,481-38.9,482.3-40.1,483.3z"/>
			<path class="st2" d="M1.3,476.1h-21.4v-3.7l10.6-11.6c1.5-1.7,2.6-3.1,3.3-4.3s1-2.3,1-3.4c0-1.5-0.4-2.7-1.3-3.7
				c-0.9-0.9-2-1.4-3.4-1.4c-1.7,0-3.1,0.5-4,1.6c-0.9,1.1-1.4,2.5-1.4,4.3h-5.3c0-1.9,0.4-3.7,1.3-5.2c0.9-1.6,2.1-2.8,3.8-3.6
				s3.5-1.3,5.7-1.3c3.1,0,5.5,0.8,7.3,2.3c1.8,1.6,2.7,3.7,2.7,6.4c0,1.6-0.4,3.3-1.3,5s-2.4,3.7-4.4,5.9l-7.8,8.3H1.3V476.1z"/>
			<path class="st2" d="M25.1,468.5l4.8-16.1h5.7l-9.4,27.3c-1.4,4-3.9,6-7.4,6c-0.8,0-1.6-0.1-2.6-0.4v-4.1l1,0.1
				c1.3,0,2.4-0.2,3-0.7c0.7-0.5,1.2-1.3,1.6-2.5l0.8-2l-8.3-23.6h5.7L25.1,468.5z"/>
			<path class="st2" d="M55.6,457.7h3.2c1.6,0,2.9-0.4,3.9-1.3c1-0.8,1.4-2,1.4-3.6c0-1.5-0.4-2.7-1.2-3.5c-0.8-0.8-2-1.3-3.6-1.3
				c-1.4,0-2.6,0.4-3.5,1.2s-1.4,1.9-1.4,3.2h-5.3c0-1.6,0.4-3.1,1.3-4.5c0.9-1.3,2.1-2.4,3.6-3.1s3.3-1.1,5.2-1.1
				c3.2,0,5.7,0.8,7.5,2.4c1.8,1.6,2.7,3.8,2.7,6.7c0,1.4-0.5,2.8-1.4,4c-0.9,1.3-2.1,2.2-3.5,2.9c1.8,0.6,3.1,1.5,4,2.8
				s1.4,2.8,1.4,4.6c0,2.9-1,5.1-2.9,6.8c-2,1.7-4.5,2.5-7.7,2.5c-3.1,0-5.6-0.8-7.5-2.5c-2-1.6-2.9-3.8-2.9-6.5h5.3
				c0,1.4,0.5,2.5,1.4,3.4c0.9,0.9,2.2,1.3,3.8,1.3c1.6,0,2.9-0.4,3.9-1.3c0.9-0.9,1.4-2.1,1.4-3.8c0-1.7-0.5-3-1.5-3.9
				c-1-0.9-2.5-1.4-4.4-1.4h-3.1V457.7z"/>
		</g>
		<g class="st1">
			<path class="st2" d="M84.3,476.1v-31.9h9.4c2.8,0,5.3,0.6,7.5,1.9c2.2,1.3,3.9,3,5.1,5.3c1.2,2.3,1.8,4.9,1.8,7.9v1.6
				c0,3-0.6,5.7-1.8,8c-1.2,2.3-2.9,4.1-5.1,5.3c-2.2,1.2-4.8,1.9-7.7,1.9H84.3z M89.8,448.7v23h3.6c2.9,0,5.1-0.9,6.7-2.7
				c1.6-1.8,2.3-4.4,2.4-7.8v-1.8c0-3.5-0.8-6.1-2.3-7.9c-1.5-1.8-3.7-2.7-6.5-2.7H89.8z"/>
			<path class="st2" d="M112.1,464c0-2.3,0.5-4.4,1.4-6.3c0.9-1.9,2.2-3.3,3.9-4.3c1.7-1,3.6-1.5,5.7-1.5c3.2,0,5.8,1,7.8,3.1
				c2,2.1,3.1,4.8,3.2,8.2l0,1.2c0,2.3-0.4,4.4-1.3,6.3c-0.9,1.8-2.2,3.3-3.9,4.3s-3.6,1.5-5.8,1.5c-3.3,0-6-1.1-8-3.3
				c-2-2.2-3-5.2-3-8.9V464z M117.4,464.5c0,2.4,0.5,4.3,1.5,5.7c1,1.4,2.4,2.1,4.2,2.1s3.2-0.7,4.2-2.1c1-1.4,1.5-3.5,1.5-6.2
				c0-2.4-0.5-4.3-1.5-5.7c-1-1.4-2.4-2.1-4.2-2.1c-1.7,0-3.1,0.7-4.1,2.1S117.4,461.8,117.4,464.5z"/>
			<path class="st2" d="M151,457.3c-0.7-0.1-1.4-0.2-2.2-0.2c-2.4,0-4.1,0.9-4.9,2.8v16.2h-5.3v-23.7h5.1l0.1,2.6
				c1.3-2.1,3.1-3.1,5.3-3.1c0.8,0,1.4,0.1,1.9,0.3L151,457.3z"/>
			<path class="st2" d="M159.3,452.4l0.2,2.5c1.7-1.9,3.9-2.9,6.8-2.9c3.2,0,5.3,1.2,6.5,3.6c1.7-2.4,4.1-3.6,7.3-3.6
				c2.6,0,4.6,0.7,5.8,2.2c1.3,1.4,1.9,3.6,2,6.4v15.6h-5.3v-15.4c0-1.5-0.3-2.6-1-3.3c-0.7-0.7-1.7-1.1-3.3-1.1c-1.2,0-2.2,0.3-3,1
				c-0.8,0.6-1.3,1.5-1.6,2.5l0,16.2h-5.3v-15.6c-0.1-2.8-1.5-4.2-4.3-4.2c-2.1,0-3.6,0.9-4.5,2.6v17.2h-5.3v-23.7H159.3z"/>
			<path class="st2" d="M196.7,470.5c1,0,1.8,0.3,2.3,0.8s0.8,1.3,0.8,2.1c0,0.8-0.3,1.5-0.8,2.1s-1.3,0.8-2.3,0.8
				c-0.9,0-1.7-0.3-2.3-0.8c-0.6-0.5-0.8-1.2-0.8-2.1s0.3-1.6,0.8-2.1S195.7,470.5,196.7,470.5z"/>
		</g>
		<path class="st3" d="M-74.2,328.1c-0.5,0-0.9-0.2-1.3-0.5c-0.4-0.3-0.6-0.8-0.5-1.3v-18.7c0-0.5,0.2-0.9,0.5-1.3
			c0.3-0.4,0.8-0.6,1.3-0.5c0.5,0,0.9,0.2,1.3,0.5c0.4,0.3,0.6,0.8,0.5,1.3v18.7c0,0.5-0.2,0.9-0.5,1.3
			C-73.2,327.9-73.7,328.1-74.2,328.1z"/>
		<path class="st3" d="M-51,328.1c-3,0-5.8-1.1-7.9-3.3c-2.1-2.1-3.3-4.9-3.3-7.9c0-3,1.1-5.8,3.3-7.9c2.1-2.1,4.9-3.3,7.9-3.3
			c2.5,0,4.9,0.8,6.8,2.3c0.4,0.3,0.6,0.7,0.7,1.2c0.1,0.5-0.1,1-0.4,1.4c-0.3,0.4-0.7,0.6-1.2,0.7c-0.5,0.1-1-0.1-1.4-0.4
			c-3-2.3-7.2-2-9.8,0.7c-1.4,1.4-2.2,3.3-2.2,5.3c0,2,0.8,3.9,2.2,5.3c1.4,1.4,3.3,2.2,5.3,2.2c1.9,0,3.6-0.7,5-1.9
			c0.4-0.3,0.8-0.5,1.3-0.5c0.5,0,1,0.2,1.3,0.6c0.3,0.4,0.5,0.8,0.5,1.3c0,0.5-0.2,1-0.6,1.3C-45.5,327.1-48.2,328.1-51,328.1z"/>
		<path class="st3" d="M-4,305.6c0.5,0,0.9,0.2,1.3,0.5c0.4,0.3,0.6,0.8,0.5,1.3v16.9h8.3c0.5,0,1,0.2,1.3,0.5
			c0.7,0.7,0.7,1.9,0,2.6c-0.4,0.4-0.8,0.5-1.3,0.5H-4.1c-0.5,0-0.9-0.2-1.3-0.5c-0.4-0.3-0.6-0.8-0.5-1.3v-18.7
			c0-0.5,0.2-1,0.5-1.3C-5,305.8-4.5,305.6-4,305.6z"/>
		<path class="st3" d="M-15.1,326.3L-15.1,326.3c0-0.3-0.1-0.6-0.2-0.8l-1.9-4.7l0,0l-5.8-13.9c0-0.1,0-0.1-0.1-0.2c0,0,0,0,0-0.1
			c0,0,0,0,0-0.1l-0.1-0.1l-0.1-0.1l-0.1-0.1c0,0,0,0,0-0.1c0,0,0,0-0.1-0.1c0,0,0,0-0.1,0c0,0-0.1,0-0.1-0.1l-0.1-0.1
			c0,0-0.1,0-0.1-0.1l-0.1,0c-0.1-0.1-0.2-0.1-0.3-0.1c0,0,0,0-0.1,0c0,0-0.1,0-0.1,0h-0.1h-0.1h-0.3h-0.1c-0.1,0-0.1,0-0.1,0h-0.1
			c0,0-0.1,0-0.1,0c0,0-0.1,0-0.1,0c0,0,0,0-0.1,0l0,0c0,0-0.1,0-0.1,0.1c0,0-0.1,0-0.1,0l-0.1,0.2l-0.1,0.1c-0.1,0-0.1,0.1-0.1,0.1
			l-0.1,0.1c0,0-0.1,0-0.1,0.1l-0.1,0.1l-0.1,0.1h-0.1c0,0,0,0,0,0.1l-0.1,0.1v0.1c0,0.1-0.1,0.1-0.1,0.2l-5.9,13.9l0,0l-2,4.8
			c-0.2,0.5-0.2,1,0,1.4c0.2,0.5,0.5,0.8,1,1c0.1,0.1,0.2,0.1,0.3,0.1h15.9c0.4,0,0.8-0.2,1.2-0.4c0.1,0,0.1-0.1,0.1-0.1l0,0
			C-15.3,327.2-15.1,326.7-15.1,326.3z M-24.7,312.4l5,12h-10L-24.7,312.4z"/>
		<path class="st3" d="M37.8,305.6c0.4,0.1,0.7,0.3,1,0.7c0.2,0.3,0.4,0.7,0.4,1.1v18.8c0,1-0.8,1.8-1.8,1.8c0,0,0,0,0,0
			c-0.5,0-1-0.2-1.4-0.5c-0.3-0.3-0.5-0.8-0.5-1.3V314l-5.8,9.6l0,0l0,0l0,0l0,0c0,0.1-0.1,0.1-0.1,0.1v0.1l-0.1,0.1l-0.1,0.1
			l-0.1,0.1c0,0-0.1,0-0.1,0.1l0,0c0,0-0.1,0-0.1,0.1l0,0l0,0c0,0-0.1,0-0.1,0.1c0,0.1-0.1,0,0,0c0,0-0.1,0-0.1,0
			c-0.2,0.1-0.5,0.1-0.8,0.1l0,0c0,0,0,0-0.1,0c-0.1,0-0.3,0-0.4-0.1c-0.1,0-0.1,0-0.1,0h-0.1c-0.1,0-0.1,0-0.1-0.1l0,0
			c-0.1,0-0.1,0-0.1-0.1l0,0l0,0c0,0-0.1,0-0.1-0.1c0,0,0,0-0.1,0c0,0-0.1-0.1-0.1-0.1l-0.1-0.1l-0.1-0.1c0,0,0,0-0.1-0.1
			c0,0,0,0,0-0.1c0,0,0-0.1-0.1-0.1l0,0l0,0l0,0l0,0l-5.8-9.6v12.1c0.4,1-0.2,2.1-1.2,2.5c-1,0.4-2.1-0.2-2.5-1.2
			c-0.4-0.3-0.6-0.8-0.5-1.3v-18.8c0-0.4,0.1-0.8,0.4-1.1c0.2-0.3,0.6-0.6,1-0.7c0.4-0.1,0.8-0.1,1.2,0.1c0.4,0.2,0.7,0.4,0.9,0.8
			l7.7,12.7l7.7-12.7c0.2-0.3,0.5-0.6,0.9-0.8c0.4-0.2,0.6-0.2,0.6-0.2S37.4,305.5,37.8,305.6z"/>
		<path class="st3" d="M68.5,326.3L68.5,326.3c0-0.3-0.1-0.6-0.2-0.8l-1.9-4.7l0,0l-5.8-13.9c0-0.1,0-0.1-0.1-0.2c0,0,0,0,0-0.1
			c0,0,0,0,0-0.1l-0.1-0.1l-0.1-0.1l-0.1-0.1c0,0,0,0,0-0.1c0,0,0,0-0.1-0.1c0,0,0,0-0.1,0l-0.2-0.1v-0.1c0,0-0.1,0-0.1-0.1h-0.1
			c-0.1-0.1-0.2-0.1-0.4-0.1c0,0,0,0-0.1,0c0,0-0.1,0-0.1,0h-0.1h-0.1h-0.4h-0.1c-0.1,0-0.1,0-0.1,0h-0.1c0,0-0.1,0-0.1,0
			c0,0-0.1,0-0.1,0c0,0,0,0-0.1,0l0,0c0,0-0.1,0-0.1,0.1c0,0-0.1,0-0.1,0l-0.1,0.1c0,0-0.1,0-0.1,0.1c-0.1,0-0.1,0.1-0.1,0.1
			c0,0-0.1,0-0.1,0.1c0,0-0.1,0-0.1,0.1l-0.1,0.1l-0.1,0.1l-0.1,0.1c0,0,0,0,0,0.1l-0.1,0.1v0.1c0,0.1-0.1,0.1-0.1,0.2l-6,13.9l0,0
			l-2,4.8c-0.2,0.5-0.2,1,0,1.4c0.2,0.5,0.5,0.8,1,1c0.1,0.1,0.2,0.1,0.4,0.1h15.8c0.4,0,0.8-0.2,1.2-0.4c0.1,0,0.1-0.1,0.1-0.1l0,0
			C68.3,327.2,68.5,326.7,68.5,326.3z M58.9,312.4l5,12h-10L58.9,312.4z"/>
		<g class="st1">
			<path class="st0" d="M-75.7,405.8c-0.7-0.7-1.1-1.6-1.1-2.7v-48.7c0-1.1,0.4-2,1.1-2.7c0.7-0.7,1.6-1,2.7-1h32.5
				c1.1,0,2,0.3,2.7,1c0.7,0.6,1,1.5,1,2.6c0,1-0.3,1.8-1,2.4c-0.7,0.6-1.6,0.9-2.7,0.9h-28.8V375h20.7c1.1,0,1.9,0.3,2.6,1
				c0.7,0.6,1,1.5,1,2.5s-0.3,1.8-1,2.5c-0.7,0.6-1.6,1-2.6,1h-20.7v18h28.8c1.1,0,2,0.3,2.7,0.9c0.7,0.6,1,1.4,1,2.4
				c0,1.1-0.3,1.9-1,2.6c-0.7,0.6-1.6,1-2.7,1h-32.5C-74.1,406.8-75,406.5-75.7,405.8z"/>
			<path class="st0" d="M18,400.8c0.5,0.8,0.8,1.6,0.8,2.4c0,1-0.3,1.8-0.9,2.5c-0.6,0.7-1.5,1.1-2.5,1.1c-1.2,0-2.2-0.5-2.9-1.4
				l-15.6-21.7l-16.6,22c-0.7,0.7-1.6,1.1-2.6,1.1c-1.1,0-1.9-0.3-2.5-1c-0.6-0.7-0.9-1.5-0.9-2.4c0-1,0.3-1.8,0.9-2.6l16.8-22.3
				l-15.8-22c-0.5-0.6-0.7-1.4-0.7-2.2c0-1,0.3-1.9,0.9-2.6c0.6-0.7,1.5-1.1,2.5-1.1c1.2,0,2.1,0.4,2.7,1.1l15.5,21.5l16.1-21.5
				c0.7-0.7,1.6-1.1,2.7-1.1c1,0,1.8,0.3,2.4,1c0.6,0.7,0.9,1.5,0.9,2.4c0,0.8-0.3,1.6-0.8,2.4L1.8,378.4L18,400.8z"/>
			<path class="st0" d="M34.7,405.8c-0.7-0.7-1.1-1.6-1.1-2.7v-48.7c0-1.1,0.4-2,1.1-2.7c0.7-0.7,1.6-1,2.7-1h32.5
				c1.1,0,2,0.3,2.7,1c0.7,0.6,1,1.5,1,2.6c0,1-0.3,1.8-1,2.4c-0.7,0.6-1.6,0.9-2.7,0.9H41.1V375h20.7c1.1,0,1.9,0.3,2.6,1
				c0.7,0.6,1,1.5,1,2.5s-0.3,1.8-1,2.5c-0.7,0.6-1.6,1-2.6,1H41.1v18h28.8c1.1,0,2,0.3,2.7,0.9c0.7,0.6,1,1.4,1,2.4
				c0,1.1-0.3,1.9-1,2.6c-0.7,0.6-1.6,1-2.7,1H37.4C36.3,406.8,35.4,406.5,34.7,405.8z"/>
			<path class="st0" d="M139.1,400.6c0.7,0.8,1.1,1.6,1.1,2.5c0,1-0.4,1.8-1.1,2.5c-0.8,0.8-1.6,1.2-2.5,1.2c-0.9,0-1.7-0.4-2.6-1.2
				l-3-3c-4.8,3.2-10.4,4.8-16.7,4.8c-5.6,0-10.5-1.2-14.9-3.7c-4.3-2.4-7.7-5.9-10.1-10.3c-2.4-4.4-3.6-9.4-3.6-14.9
				c0-5.6,1.2-10.5,3.6-14.9c2.4-4.4,5.8-7.8,10.1-10.2c4.3-2.4,9.3-3.7,14.9-3.7c5.5,0,10.5,1.2,14.8,3.7
				c4.3,2.4,7.7,5.9,10.2,10.2c2.4,4.4,3.6,9.3,3.6,14.9c0,3.8-0.6,7.3-1.7,10.6c-1.1,3.3-2.7,6.1-4.9,8.6L139.1,400.6z
				 M125.8,397.5l-6.9-6.9c-0.8-0.9-1.2-1.7-1.2-2.6c0-0.9,0.4-1.8,1.2-2.5c0.8-0.8,1.6-1.2,2.6-1.2c1,0,1.8,0.4,2.5,1.2l7.1,7.2
				c3-4,4.5-8.7,4.5-14c0-4.1-0.9-7.9-2.7-11.2c-1.8-3.4-4.4-6-7.6-7.9c-3.2-1.9-6.9-2.9-11.1-2.9c-4.1,0-7.8,1-11.1,2.9
				c-3.2,1.9-5.8,4.6-7.6,7.9c-1.8,3.4-2.7,7.1-2.7,11.2c0,4.1,0.9,7.9,2.7,11.2c1.8,3.4,4.4,6,7.6,8c3.3,1.9,6.9,2.9,11,2.9
				C118.6,400.8,122.4,399.7,125.8,397.5z"/>
			<path class="st0" d="M170.2,405.4c-3.6-1.7-6.4-4.1-8.4-7.1c-2-3-3-6.5-3-10.4v-33.6c0-1.1,0.4-2,1.1-2.7c0.7-0.7,1.6-1,2.7-1
				c1.1,0,2,0.3,2.7,1c0.7,0.7,1,1.6,1,2.7V388c0,2.5,0.7,4.8,2.1,6.8c1.4,2,3.3,3.6,5.7,4.7c2.4,1.1,5.2,1.7,8.3,1.7
				c3,0,5.6-0.6,8-1.7c2.4-1.1,4.2-2.7,5.5-4.7c1.3-2,2-4.3,2-6.8v-33.6c0-1.1,0.4-2,1.1-2.7c0.7-0.7,1.6-1,2.7-1
				c1.1,0,1.9,0.3,2.6,1c0.7,0.7,1,1.6,1,2.7V388c0,3.8-1,7.3-2.9,10.3c-1.9,3-4.7,5.4-8.1,7.1c-3.5,1.7-7.4,2.6-11.8,2.6
				C177.8,408,173.8,407.1,170.2,405.4z"/>
			<path class="st0" d="M225,405.8c-0.7-0.7-1.1-1.6-1.1-2.7v-48.7c0-1.1,0.4-2,1.1-2.7c0.7-0.7,1.6-1,2.7-1c1.1,0,2,0.3,2.7,1
				c0.7,0.7,1,1.6,1,2.7v48.7c0,1.1-0.3,1.9-1,2.7c-0.7,0.7-1.6,1.1-2.7,1.1C226.6,406.8,225.7,406.5,225,405.8z"/>
			<path class="st0" d="M251.2,405.8c-0.7-0.7-1.1-1.6-1.1-2.7v-48.7c0-1.1,0.4-2,1.1-2.7c0.7-0.7,1.6-1,2.7-1h32.5
				c1.1,0,2,0.3,2.7,1c0.7,0.6,1,1.5,1,2.6c0,1-0.3,1.8-1,2.4c-0.7,0.6-1.6,0.9-2.7,0.9h-28.8V375h20.7c1.1,0,1.9,0.3,2.6,1
				c0.7,0.6,1,1.5,1,2.5s-0.3,1.8-1,2.5c-0.7,0.6-1.6,1-2.6,1h-20.7v18h28.8c1.1,0,2,0.3,2.7,0.9c0.7,0.6,1,1.4,1,2.4
				c0,1.1-0.3,1.9-1,2.6c-0.7,0.6-1.6,1-2.7,1h-32.5C252.8,406.8,251.9,406.5,251.2,405.8z"/>
			<path class="st0" d="M305.8,405.8c-0.7-0.7-1-1.6-1-2.7v-48.7c0-1.1,0.4-1.9,1.1-2.7c0.7-0.7,1.6-1.1,2.6-1.1
				c1.1,0,1.9,0.4,2.7,1.1c0.7,0.7,1.1,1.6,1.1,2.7v45h26.1c1.1,0,1.9,0.4,2.7,1.1c0.7,0.7,1.1,1.6,1.1,2.7c0,1.1-0.4,1.9-1.1,2.7
				c-0.7,0.7-1.6,1.1-2.7,1.1h-29.8C307.3,406.8,306.5,406.5,305.8,405.8z"/>
		</g>
	</g>
</g>
</svg>
