<?xml version="1.0" encoding="utf-8"?>
<!-- Generator: Adobe Illustrator 21.1.0, SVG Export Plug-In . SVG Version: 6.00 Build 0)  -->
<svg version="1.1" id="Capa_1" xmlns="http://www.w3.org/2000/svg" xmlns:xlink="http://www.w3.org/1999/xlink" x="0px" y="0px"
	 viewBox="0 0 349 78.8" style="enable-background:new 0 0 349 78.8;" xml:space="preserve">
<style type="text/css">
	.st0{fill:#FFFFFF;}
	.st1{fill:#484848;}
	.st2{fill:#FEFEFE;}
</style>
<g>
	<text transform="matrix(1 0 0 1 -227.6917 4386.6416)" style="fill:#0075C9; font-family:'Barlow-Regular'; font-size:14px;">L</text>
</g>
<g>
	<text transform="matrix(1 0 0 1 -219.7395 4386.6416)" style="fill:#0075C9; font-family:'Barlow-Regular'; font-size:14px;">a</text>
</g>
<g>
	<text transform="matrix(1 0 0 1 -212.5857 4386.6416)" style="fill:#0075C9; font-family:'Barlow-Regular'; font-size:14px;">s</text>
</g>
<g>
	<text transform="matrix(1 0 0 1 -205.8376 4386.6416)" style="fill:#0075C9; font-family:'Barlow-Regular'; font-size:14px;"> </text>
</g>
<g>
	<text transform="matrix(1 0 0 1 -203.0378 4386.6416)" style="fill:#0075C9; font-family:'Barlow-Regular'; font-size:14px;">i</text>
</g>
<g>
	<g>
		<g>
			<path class="st0" d="M548.9-168.1c-0.5,0-1-0.2-1.3-0.5c-0.4-0.3-0.5-0.8-0.5-1.3v-18.9c0-0.5,0.2-1,0.5-1.3
				c0.3-0.4,0.8-0.5,1.3-0.5c0.5,0,1,0.2,1.3,0.5c0.4,0.3,0.5,0.8,0.5,1.3v18.9c0,0.5-0.2,1-0.5,1.3
				C549.9-168.3,549.4-168.1,548.9-168.1z"/>
		</g>
		<g>
			<path class="st0" d="M572.3-168.1c-3.1,0-5.8-1.1-8-3.3c-2.2-2.2-3.3-4.9-3.3-8c0-3.1,1.1-5.8,3.3-8c2.2-2.2,4.9-3.3,8-3.3
				c2.6,0,4.8,0.8,6.9,2.3c0.4,0.3,0.6,0.7,0.7,1.2c0.1,0.5-0.1,1-0.4,1.4c-0.3,0.4-0.7,0.6-1.2,0.7s-1-0.1-1.4-0.4
				c-1.4-1-2.9-1.6-4.6-1.6c-2.1,0-3.8,0.7-5.3,2.2c-1.5,1.5-2.2,3.3-2.2,5.4s0.7,3.9,2.2,5.3c1.5,1.5,3.3,2.2,5.3,2.2
				c2,0,3.6-0.7,5.1-2c0.4-0.3,0.8-0.5,1.3-0.5c0.5,0,1,0.2,1.3,0.6c0.3,0.4,0.5,0.8,0.5,1.3c0,0.5-0.2,1-0.6,1.3
				C577.7-169.1,575.2-168.1,572.3-168.1z"/>
		</g>
		<g>
			<path class="st0" d="M619.7-190.8c0.5,0,1,0.2,1.3,0.5c0.4,0.3,0.5,0.8,0.5,1.3v17.1h8.4c0.5,0,1,0.2,1.3,0.5
				c0.3,0.3,0.5,0.8,0.5,1.3c0,0.5-0.2,1-0.5,1.3c-0.4,0.4-0.8,0.5-1.3,0.5h-10.2c-0.5,0-1-0.2-1.3-0.5c-0.4-0.3-0.5-0.8-0.5-1.3
				v-18.9c0-0.5,0.2-1,0.5-1.3C618.7-190.6,619.2-190.8,619.7-190.8z"/>
		</g>
		<g>
			<path class="st0" d="M598.1-190.5L598.1-190.5L598.1-190.5z"/>
			<g>
				<g>
					<path class="st0" d="M608.5-169.9C608.5-169.9,608.5-169.9,608.5-169.9c0-0.3-0.1-0.6-0.2-0.8l-2-4.8l0,0l-5.8-14
						c0-0.1,0-0.1-0.1-0.2c0,0,0,0,0-0.1c0,0,0-0.1,0-0.1s0,0-0.1-0.1l-0.1-0.1c0,0,0,0-0.1-0.1c0,0,0-0.1,0-0.1c0,0,0,0-0.1-0.1
						s-0.1,0-0.1,0s0,0-0.1-0.1l-0.1-0.1c0,0,0,0-0.1-0.1c-0.1,0-0.1,0-0.1,0c-0.1-0.1-0.2-0.1-0.3-0.1c0,0,0,0-0.1,0
						c-0.1,0-0.1,0-0.1,0l-0.1,0l-0.1,0h-0.1c0,0-0.1,0-0.1,0c0,0,0,0-0.1,0c-0.1,0-0.1,0-0.1,0l-0.1,0c-0.1,0-0.1,0-0.1,0h-0.1
						c-0.1,0-0.1,0-0.1,0c0,0-0.1,0-0.1,0c0,0-0.1,0-0.1,0c0,0,0,0,0,0c-0.1,0-0.1,0-0.1,0.1c0,0,0,0-0.1,0l-0.1,0.1
						c0,0,0,0-0.1,0.1c-0.1,0-0.1,0.1-0.1,0.1s0,0-0.1,0.1c0,0-0.1,0-0.1,0.1c0,0,0,0-0.1,0.1s-0.1,0.1-0.1,0.1s0,0-0.1,0.1
						c0,0,0,0.1,0,0.1s0,0-0.1,0.1l0,0.1c0,0.1-0.1,0.1-0.1,0.2l-5.9,14l0,0l-2,4.8c-0.2,0.5-0.2,1,0,1.4s0.5,0.8,1,1
						c0.2,0.1,0.3,0.1,0.3,0.1s0,0,0.1,0c0.1,0,0.2,0,0.3,0h15.6l0,0l0,0l0,0c0.4,0,0.8-0.2,1.2-0.4c0.1,0,0.1-0.1,0.1-0.1l0,0
						C608.3-169,608.5-169.4,608.5-169.9z M598.8-183.9l5,12.1h-10L598.8-183.9z"/>
				</g>
			</g>
		</g>
		<g>
			<path class="st0" d="M661.9-190.8c0.4,0.1,0.7,0.3,1,0.7c0.3,0.3,0.4,0.7,0.4,1.1v19c0,0.5-0.2,1-0.5,1.3
				c-0.4,0.4-0.8,0.5-1.3,0.5c-0.5,0-1-0.2-1.3-0.5c-0.3-0.3-0.5-0.8-0.5-1.3v-12.3l-5.9,9.7v0l0,0l0,0l0,0c0,0.1-0.1,0.1-0.1,0.1
				l0,0.1c0,0-0.1,0.1-0.1,0.1s0,0-0.1,0.1c0,0-0.1,0.1-0.1,0.1c0,0-0.1,0-0.1,0.1l0,0c0,0-0.1,0-0.1,0.1c0,0,0,0,0,0l0,0h0
				c0,0-0.1,0-0.1,0.1c0,0-0.1,0,0,0c0,0,0,0-0.1,0c-0.3,0.1-0.5,0.2-0.8,0.1h0c0,0,0,0-0.1,0c-0.1,0-0.3,0-0.4-0.1
				c-0.1,0-0.1,0-0.1,0c0,0,0,0-0.1,0c-0.1,0-0.1,0-0.1-0.1c0,0,0,0,0,0c-0.1,0-0.1,0-0.1-0.1h0l0,0l0,0c0,0-0.1,0-0.1-0.1
				c0,0,0,0-0.1,0c0,0-0.1-0.1-0.1-0.1c0,0,0,0-0.1-0.1s-0.1-0.1-0.1-0.1c0,0,0,0-0.1-0.1c0,0,0-0.1,0-0.1c0,0,0-0.1-0.1-0.1v0
				c0,0,0,0,0,0v0c0,0,0,0,0,0l-5.9-9.7v12.3c0,0.5-0.2,1-0.5,1.3c-0.4,0.4-0.8,0.5-1.3,0.5c-0.5,0-1-0.2-1.3-0.5
				c-0.4-0.3-0.5-0.8-0.5-1.3v-18.9c0-0.4,0.1-0.8,0.4-1.1c0.3-0.3,0.6-0.6,1-0.7s0.8-0.1,1.2,0.1c0.4,0.2,0.7,0.4,0.9,0.8l7.8,12.8
				l7.8-12.8c0.2-0.3,0.5-0.6,0.9-0.8s0.6-0.2,0.6-0.2S661.5-190.8,661.9-190.8z"/>
		</g>
		<g>
			<g>
				<g>
					<path class="st0" d="M692.6-170.7l-2-4.8l-5.8-14c0-0.1,0-0.1-0.1-0.2c0,0,0,0,0-0.1c0,0,0-0.1,0-0.1s0,0-0.1-0.1l-0.1-0.1
						c0,0,0,0-0.1-0.1c0,0,0-0.1,0-0.1c0,0,0,0-0.1-0.1c0,0-0.1,0-0.1,0s0,0-0.1-0.1l-0.1-0.1c0,0,0,0-0.1-0.1c-0.1,0-0.1,0-0.1,0
						c-0.1-0.1-0.2-0.1-0.3-0.1c0,0,0,0-0.1,0c-0.1,0-0.1,0-0.1,0l-0.1,0l-0.1,0h-0.1c0,0-0.1,0-0.1,0c0,0,0,0-0.1,0
						c-0.1,0-0.1,0-0.1,0l-0.1,0c-0.1,0-0.1,0-0.1,0h-0.1c-0.1,0-0.1,0-0.1,0c0,0-0.1,0-0.1,0c0,0-0.1,0-0.1,0c0,0,0,0,0,0
						c-0.1,0-0.1,0-0.1,0.1c0,0,0,0-0.1,0l-0.1,0.1c0,0,0,0-0.1,0.1c-0.1,0-0.1,0.1-0.1,0.1s0,0-0.1,0.1c0,0-0.1,0-0.1,0.1
						c0,0,0,0-0.1,0.1c0,0-0.1,0.1-0.1,0.1s0,0-0.1,0.1c0,0,0,0.1,0,0.1s0,0-0.1,0.1l0,0.1c0,0.1-0.1,0.1-0.1,0.2l-5.9,14l-2,4.8
						c-0.2,0.5-0.2,1,0,1.4c0.2,0.5,0.5,0.8,1,1c0.2,0.1,0.3,0.1,0.3,0.1s0,0,0.1,0c0.1,0,0.2,0,0.3,0h15.6c0.4,0,0.8-0.2,1.2-0.4
						c0.1,0,0.1-0.1,0.1-0.1c0.4-0.3,0.6-0.8,0.6-1.2c0,0,0,0,0-0.1C692.8-170.2,692.7-170.5,692.6-170.7z M678.1-171.8l5-12.1
						l5,12.1H678.1z"/>
				</g>
			</g>
		</g>
		<g>
			<path class="st0" d="M631.8-200.5c-0.4,0-0.8-0.1-1.1-0.4l-10.8-9.3l-10.8,9.3c-0.7,0.6-1.7,0.5-2.3-0.2s-0.5-1.7,0.2-2.3
				l11.9-10.2c0.6-0.5,1.5-0.5,2.2,0l11.9,10.3c0.7,0.6,0.8,1.6,0.2,2.3C632.8-200.7,632.3-200.5,631.8-200.5z"/>
		</g>
		<g>
			
				<text transform="matrix(1 0 0 1 732.9626 -167.8246)" class="st0" style="font-family:'Comfortaa-Regular'; font-size:29.0158px;">INMOBILIARIA</text>
		</g>
		<g>
			<rect x="712.1" y="-200.5" class="st0" width="1.5" height="42"/>
		</g>
	</g>
</g>
<g>
	<g>
		<line class="st1" x1="1052.4" y1="103.8" x2="540.4" y2="103.8"/>
		<rect x="540.4" y="102.8" class="st0" width="512.1" height="2"/>
	</g>
</g>
<path class="st0" d="M792.5,160.9H553.1c-7,0-12.7-5.7-12.7-12.7v-44.4h324.3l-62.1,53.5C799.7,159.6,796.2,160.9,792.5,160.9z"/>
<g>
	<text transform="matrix(1 0 0 1 554.0645 148.0475)"><tspan x="0" y="0" style="fill:#0075C9; font-family:'Roboto-Medium'; font-size:44.8317px;">1-2-3</tspan><tspan x="105.9" y="0" style="fill:#0075C9; font-family:'Roboto-Medium'; font-size:44.8317px; letter-spacing:-2;"> </tspan><tspan x="114.3" y="0" style="fill:#0075C9; font-family:'Roboto-Medium'; font-size:44.8317px;">Dorm.</tspan></text>
</g>
<g>
	<path class="st2" d="M548.9,0c-0.5,0-0.9-0.2-1.3-0.5c-0.4-0.3-0.5-0.8-0.5-1.3v-18.7c0-0.5,0.2-0.9,0.5-1.3
		c0.3-0.4,0.8-0.5,1.3-0.5s0.9,0.2,1.3,0.5c0.4,0.3,0.5,0.8,0.5,1.3v18.7c0,0.5-0.2,0.9-0.5,1.3C549.9-0.2,549.4,0,548.9,0z"/>
	<path class="st2" d="M572.1,0c-3.1,0-5.7-1.1-7.9-3.3c-2.2-2.2-3.3-4.8-3.3-7.9s1.1-5.7,3.3-7.9c2.2-2.2,4.8-3.3,7.9-3.3
		c2.5,0,4.8,0.8,6.8,2.3c0.4,0.3,0.6,0.7,0.7,1.2c0.1,0.5-0.1,1-0.4,1.4c-0.3,0.4-0.7,0.6-1.2,0.7c-0.5,0.1-1-0.1-1.4-0.4
		c-1.4-1-2.9-1.5-4.6-1.5c-2,0-3.8,0.7-5.3,2.2c-1.5,1.5-2.2,3.2-2.2,5.3s0.7,3.8,2.2,5.3c1.5,1.5,3.2,2.2,5.3,2.2
		c1.9,0,3.6-0.7,5.1-1.9c0.4-0.3,0.8-0.5,1.3-0.5c0.5,0,0.9,0.2,1.3,0.6c0.3,0.4,0.5,0.8,0.5,1.3c0,0.5-0.2,0.9-0.6,1.3
		C577.5-1,575,0,572.1,0z"/>
	<path class="st2" d="M619.1-22.5c0.5,0,0.9,0.2,1.3,0.5c0.4,0.3,0.5,0.8,0.5,1.3v16.9h8.3c0.5,0,0.9,0.2,1.3,0.5
		c0.3,0.3,0.5,0.8,0.5,1.3s-0.2,0.9-0.5,1.3c-0.4,0.4-0.8,0.5-1.3,0.5H619c-0.5,0-0.9-0.2-1.3-0.5c-0.4-0.3-0.5-0.8-0.5-1.3v-18.7
		c0-0.5,0.2-0.9,0.5-1.3C618.1-22.3,618.6-22.5,619.1-22.5z"/>
	<g>
		<path class="st2" d="M597.7-22.2L597.7-22.2L597.7-22.2z"/>
		<path class="st2" d="M608-1.8C608-1.8,608-1.8,608-1.8c0-0.3-0.1-0.6-0.2-0.8l-1.9-4.7l0,0l-5.8-13.9c0-0.1,0-0.1-0.1-0.2
			c0,0,0,0,0-0.1c0,0,0-0.1,0-0.1s0,0-0.1-0.1l-0.1-0.1c0,0,0,0-0.1-0.1s0-0.1,0-0.1c0,0,0,0-0.1-0.1s-0.1,0-0.1,0s0,0-0.1-0.1
			l-0.1-0.1c0,0,0,0-0.1-0.1c-0.1,0-0.1,0-0.1,0c-0.1-0.1-0.2-0.1-0.3-0.1c0,0,0,0-0.1,0c-0.1,0-0.1,0-0.1,0l-0.1,0l-0.1,0h-0.1
			c0,0-0.1,0-0.1,0c0,0,0,0-0.1,0c-0.1,0-0.1,0-0.1,0l-0.1,0c-0.1,0-0.1,0-0.1,0H598c-0.1,0-0.1,0-0.1,0c0,0-0.1,0-0.1,0
			c0,0-0.1,0-0.1,0c0,0,0,0,0,0c-0.1,0-0.1,0-0.1,0.1c0,0,0,0-0.1,0l-0.1,0.1c0,0,0,0-0.1,0.1c-0.1,0-0.1,0.1-0.1,0.1s0,0-0.1,0.1
			s-0.1,0-0.1,0.1c0,0,0,0-0.1,0.1s-0.1,0.1-0.1,0.1s0,0-0.1,0.1s0,0.1,0,0.1s0,0-0.1,0.1l0,0.1c0,0.1-0.1,0.1-0.1,0.2l-5.8,13.9
			l0,0l-2,4.8c-0.2,0.5-0.2,0.9,0,1.4c0.2,0.5,0.5,0.8,1,1c0.2,0.1,0.3,0.1,0.3,0.1s0,0,0.1,0s0.2,0,0.3,0h15.5l0,0l0,0l0,0
			c0.4,0,0.8-0.2,1.2-0.4c0.1,0,0.1-0.1,0.1-0.1l0,0C607.8-0.9,608-1.3,608-1.8z M598.4-15.7l5,12h-10L598.4-15.7z"/>
	</g>
	<path class="st2" d="M660.9-22.5c0.4,0.1,0.7,0.3,1,0.7s0.4,0.7,0.4,1.1v18.8c0,0.5-0.2,0.9-0.5,1.3c-0.4,0.4-0.8,0.5-1.3,0.5
		s-0.9-0.2-1.3-0.5c-0.3-0.3-0.5-0.8-0.5-1.3v-12.2l-5.8,9.6v0l0,0l0,0l0,0c0,0.1-0.1,0.1-0.1,0.1l0,0.1c0,0-0.1,0.1-0.1,0.1
		s0,0-0.1,0.1c0,0-0.1,0.1-0.1,0.1c0,0-0.1,0-0.1,0.1l0,0c0,0-0.1,0-0.1,0.1c0,0,0,0,0,0l0,0h0c0,0-0.1,0-0.1,0.1c0,0-0.1,0,0,0
		c0,0,0,0-0.1,0c-0.3,0.1-0.5,0.2-0.8,0.1h0c0,0,0,0-0.1,0c-0.1,0-0.3,0-0.4-0.1c-0.1,0-0.1,0-0.1,0c0,0,0,0-0.1,0
		c-0.1,0-0.1,0-0.1-0.1c0,0,0,0,0,0c-0.1,0-0.1,0-0.1-0.1h0l0,0l0,0c0,0-0.1,0-0.1-0.1c0,0,0,0-0.1,0S649.9-4,649.9-4
		c0,0,0,0-0.1-0.1c0,0-0.1-0.1-0.1-0.1c0,0,0,0-0.1-0.1c0,0,0-0.1,0-0.1c0,0,0-0.1-0.1-0.1v0c0,0,0,0,0,0v0c0,0,0,0,0,0l-5.8-9.6
		v12.2c0,0.5-0.2,0.9-0.5,1.3c-0.4,0.4-0.8,0.5-1.3,0.5s-0.9-0.2-1.3-0.5C640.2-1,640-1.4,640-1.9v-18.8c0-0.4,0.1-0.8,0.4-1.1
		c0.3-0.3,0.6-0.6,1-0.7c0.4-0.1,0.8-0.1,1.2,0.1c0.4,0.2,0.7,0.4,0.9,0.8l7.7,12.7l7.7-12.7c0.2-0.3,0.5-0.6,0.9-0.8
		c0.4-0.2,0.6-0.2,0.6-0.2S660.5-22.6,660.9-22.5z"/>
	<g>
		<path class="st2" d="M681.3-22.2L681.3-22.2L681.3-22.2z"/>
		<path class="st2" d="M691.6-1.8C691.6-1.8,691.6-1.8,691.6-1.8c0-0.3-0.1-0.6-0.2-0.8l-1.9-4.7l0,0l-5.8-13.9c0-0.1,0-0.1-0.1-0.2
			c0,0,0,0,0-0.1c0,0,0-0.1,0-0.1s0,0-0.1-0.1l-0.1-0.1c0,0,0,0-0.1-0.1s0-0.1,0-0.1c0,0,0,0-0.1-0.1s-0.1,0-0.1,0s0,0-0.1-0.1
			l-0.1-0.1c0,0,0,0-0.1-0.1s-0.1,0-0.1,0c-0.1-0.1-0.2-0.1-0.3-0.1c0,0,0,0-0.1,0c-0.1,0-0.1,0-0.1,0l-0.1,0l-0.1,0h-0.1
			c0,0-0.1,0-0.1,0c0,0,0,0-0.1,0c-0.1,0-0.1,0-0.1,0l-0.1,0c-0.1,0-0.1,0-0.1,0h-0.1c-0.1,0-0.1,0-0.1,0c0,0-0.1,0-0.1,0
			c0,0-0.1,0-0.1,0c0,0,0,0,0,0c-0.1,0-0.1,0-0.1,0.1c0,0,0,0-0.1,0l-0.1,0.1c0,0,0,0-0.1,0.1c-0.1,0-0.1,0.1-0.1,0.1s0,0-0.1,0.1
			c0,0-0.1,0-0.1,0.1c0,0,0,0-0.1,0.1s-0.1,0.1-0.1,0.1s0,0-0.1,0.1s0,0.1,0,0.1s0,0-0.1,0.1l0,0.1c0,0.1-0.1,0.1-0.1,0.2l-5.9,13.9
			l0,0l-2,4.8c-0.2,0.5-0.2,0.9,0,1.4s0.5,0.8,1,1c0.2,0.1,0.3,0.1,0.3,0.1s0,0,0.1,0c0.1,0,0.2,0,0.3,0h15.5l0,0l0,0l0,0
			c0.4,0,0.8-0.2,1.2-0.4c0.1,0,0.1-0.1,0.1-0.1l0,0C691.4-0.9,691.6-1.3,691.6-1.8z M681.9-15.7l5,12h-10L681.9-15.7z"/>
	</g>
</g>
<g>
	<path class="st2" d="M13.2,64.8c-1.2,0-2.2-0.4-3-1.2c-0.9-0.8-1.2-1.8-1.2-3V17.4c0-1.2,0.4-2.2,1.2-3c0.8-0.9,1.8-1.2,3-1.2
		s2.2,0.4,3,1.2c0.9,0.8,1.2,1.8,1.2,3v43.2c0,1.2-0.4,2.2-1.2,3C15.4,64.4,14.4,64.8,13.2,64.8z"/>
	<path class="st2" d="M66.7,64.8c-7.1,0-13.2-2.5-18.3-7.5c-5-5.1-7.5-11.2-7.5-18.3c0-7.1,2.5-13.2,7.5-18.3
		c5.1-5.1,11.2-7.6,18.3-7.6c5.9,0,11.1,1.8,15.7,5.4c0.9,0.7,1.5,1.7,1.6,2.8c0.1,1.2-0.1,2.2-0.9,3.2c-0.7,0.9-1.7,1.5-2.8,1.6
		c-1.2,0.1-2.2-0.1-3.2-0.9c-3.1-2.4-6.6-3.6-10.5-3.6c-4.7,0-8.8,1.7-12.2,5.1c-3.4,3.4-5.1,7.5-5.1,12.3s1.7,8.8,5.1,12.2
		c3.4,3.4,7.5,5.1,12.2,5.1c4.5,0,8.3-1.5,11.7-4.5c0.9-0.8,1.9-1.2,3-1.1c1.2,0.1,2.2,0.5,3,1.4s1.2,1.9,1.1,3
		c-0.1,1.2-0.5,2.2-1.4,3C79.1,62.6,73.3,64.8,66.7,64.8z"/>
	<path class="st2" d="M175.1,12.9c1.2,0,2.2,0.4,3,1.2c0.9,0.8,1.2,1.8,1.2,3v39.1h19.1c1.2,0,2.2,0.4,3,1.2c0.8,0.8,1.2,1.8,1.2,3
		c0,1.2-0.4,2.2-1.2,3c-0.9,0.9-1.9,1.2-3,1.2H175c-1.2,0-2.2-0.4-3-1.2c-0.9-0.8-1.2-1.8-1.2-3V17.2c0-1.2,0.4-2.2,1.2-3
		C172.9,13.4,173.9,12.9,175.1,12.9z"/>
	<g>
		<path class="st2" d="M125.7,13.4L125.7,13.4L125.7,13.4z"/>
		<path class="st2" d="M149.6,60.7c0-0.1,0-0.1,0-0.1c0-0.7-0.1-1.2-0.4-1.7l-4.5-10.9l0,0l-13.3-32.1c-0.1-0.1-0.1-0.2-0.2-0.4
			c0,0,0-0.1-0.1-0.1s-0.1-0.1-0.1-0.1s-0.1-0.1-0.1-0.1l-0.1-0.1c0,0-0.1-0.1-0.1-0.1c-0.1-0.1-0.1-0.1-0.1-0.1
			c-0.1,0-0.1-0.1-0.1-0.1c-0.1-0.1-0.1-0.1-0.1-0.1s-0.1-0.1-0.2-0.1l-0.1-0.1c0,0-0.1-0.1-0.2-0.1c-0.1-0.1-0.1-0.1-0.1-0.1
			c-0.2-0.1-0.5-0.2-0.8-0.3c0.1,0,0,0-0.1-0.1c-0.1-0.1-0.2-0.1-0.2-0.1l-0.2-0.1l-0.2-0.1h-0.2c-0.1,0-0.1,0-0.2,0
			c0,0-0.1,0-0.1,0c-0.1,0-0.2,0-0.2,0l-0.1,0.1c-0.1,0-0.2,0.1-0.3,0.1h-0.1c-0.1,0.1-0.2,0.1-0.2,0.1c-0.1,0-0.1,0.1-0.3,0.1
			c-0.1,0-0.1,0.1-0.1,0.1c0.1,0,0,0-0.1,0.1c-0.1,0.1-0.2,0.1-0.3,0.1c0,0-0.1,0.1-0.2,0.1l-0.1,0.1c0,0-0.1,0.1-0.1,0.1
			c-0.1,0.1-0.1,0.1-0.1,0.1s-0.1,0.1-0.1,0.1c-0.1,0.1-0.1,0.1-0.1,0.1c0,0-0.1,0.1-0.1,0.1c-0.1,0.1-0.1,0.1-0.1,0.1
			s-0.1,0.1-0.1,0.1c-0.1,0.1-0.1,0.1-0.1,0.1s-0.1,0.1-0.1,0.1l-0.1,0.1c-0.1,0.1-0.1,0.2-0.1,0.4l-13.5,32.1l0,0l-4.6,11
			c-0.4,1.1-0.4,2.2,0,3.3s1.2,1.9,2.3,2.3c0.5,0.2,0.8,0.3,0.8,0.3s0.1,0,0.2,0s0.4,0,0.7,0h35.8l0,0l0,0l0,0c1,0,1.9-0.4,2.7-1
			c0.1-0.1,0.2-0.1,0.3-0.3l0,0C149.1,62.8,149.5,61.8,149.6,60.7z M127.4,28.5l11.5,27.8h-23L127.4,28.5z"/>
	</g>
	<path class="st2" d="M271.7,12.9c0.9,0.3,1.7,0.8,2.2,1.5c0.6,0.7,0.9,1.6,0.9,2.5v43.4c0,1.2-0.4,2.2-1.2,3
		c-0.9,0.9-1.9,1.2-3,1.2c-1.2,0-2.2-0.4-3-1.2c-0.8-0.8-1.2-1.8-1.2-3V32.3l-13.5,22.3v0.1l-0.1,0.1l0,0l-0.1,0.1
		c-0.1,0.1-0.1,0.2-0.1,0.3l-0.1,0.1c-0.1,0.1-0.1,0.1-0.1,0.1s-0.1,0.1-0.1,0.1c-0.1,0.1-0.1,0.1-0.1,0.1c-0.1,0.1-0.1,0.1-0.2,0.1
		l-0.1,0.1c-0.1,0.1-0.1,0.1-0.2,0.1c0,0,0,0.1-0.1,0.1l0,0h-0.1c-0.1,0.1-0.1,0.1-0.2,0.1c-0.1,0.1-0.1,0.1-0.1,0.1
		c0,0-0.1,0-0.2,0.1c-0.6,0.2-1.2,0.4-1.7,0.3H249c0.1,0,0,0-0.1-0.1c-0.3,0-0.7-0.1-0.9-0.1c-0.1,0-0.1-0.1-0.1-0.1
		c0.1,0,0,0-0.1,0c-0.1-0.1-0.2-0.1-0.3-0.1c0,0,0,0-0.1-0.1c-0.1-0.1-0.2-0.1-0.3-0.1h-0.1l0,0l-0.1-0.1c-0.1-0.1-0.1-0.1-0.2-0.1
		c0,0-0.1,0-0.1-0.1c-0.1-0.1-0.1-0.1-0.2-0.1c0,0-0.1-0.1-0.1-0.1c-0.1-0.1-0.1-0.1-0.1-0.1c0-0.1-0.1-0.1-0.1-0.1
		c-0.1-0.1-0.1-0.1-0.1-0.1c-0.1-0.1-0.1-0.1-0.1-0.3v-0.1c0,0,0,0-0.1,0v-0.1c0,0,0-0.1-0.1-0.1L232,32.2v28.1c0,1.2-0.4,2.2-1.2,3
		c-0.9,0.9-1.9,1.2-3,1.2s-2.2-0.4-3-1.2c-0.9-0.8-1.2-1.8-1.2-3V17.1c0-0.9,0.3-1.8,0.9-2.5c0.6-0.8,1.3-1.3,2.2-1.5
		c0.9-0.2,1.8-0.2,2.7,0.1c0.9,0.4,1.6,0.9,2.1,1.7l17.8,29.4l17.8-29.4c0.5-0.8,1.2-1.4,2-1.7c0.9-0.4,1.3-0.5,1.3-0.5
		S270.8,12.7,271.7,12.9z"/>
	<g>
		<path class="st2" d="M318.7,13.4L318.7,13.4L318.7,13.4z"/>
		<path class="st2" d="M342.5,60.7c0-0.1,0-0.1,0-0.1c0-0.7-0.1-1.2-0.4-1.7l-4.5-10.9l0,0l-13.3-32.1c-0.1-0.1-0.1-0.2-0.1-0.4
			c0,0,0-0.1-0.1-0.1s-0.1-0.1-0.1-0.1s-0.1-0.1-0.1-0.1l-0.1-0.1c0,0-0.1-0.1-0.1-0.1c-0.1-0.1-0.1-0.1-0.1-0.1
			c-0.1,0-0.1-0.1-0.1-0.1c-0.1-0.1-0.1-0.1-0.1-0.1s-0.1-0.1-0.1-0.1l-0.1-0.1c0,0-0.1-0.1-0.2-0.1c-0.1-0.1-0.1-0.1-0.1-0.1
			c-0.2-0.1-0.5-0.2-0.8-0.3c0.1,0,0,0-0.1-0.1c-0.1-0.1-0.2-0.1-0.2-0.1l-0.1-0.1l-0.2-0.1h-0.2c-0.1,0-0.1,0-0.2,0
			c0,0-0.1,0-0.1,0c-0.1,0-0.2,0-0.2,0l-0.1,0.1c-0.1,0-0.2,0.1-0.3,0.1h-0.1c-0.1,0.1-0.2,0.1-0.2,0.1c-0.1,0-0.1,0.1-0.3,0.1
			c-0.1,0-0.1,0.1-0.1,0.1c0.1,0,0,0-0.1,0.1c-0.1,0.1-0.2,0.1-0.3,0.1c0,0-0.1,0.1-0.2,0.1l-0.1,0.1c0,0-0.1,0.1-0.2,0.1
			c-0.1,0.1-0.1,0.1-0.1,0.1s-0.1,0.1-0.2,0.1c-0.1,0.1-0.1,0.1-0.1,0.1c0,0-0.1,0.1-0.1,0.1c-0.1,0.1-0.1,0.1-0.1,0.1
			s-0.1,0.1-0.1,0.1s-0.1,0.1-0.1,0.1s-0.1,0.1-0.1,0.1l-0.1,0.1c-0.1,0.1-0.1,0.2-0.1,0.4l-13.6,32.1l0,0l-4.6,11
			c-0.4,1.1-0.4,2.2,0,3.3c0.4,1.1,1.2,1.9,2.3,2.3c0.5,0.2,0.8,0.3,0.8,0.3s0.1,0,0.2,0c0.1,0,0.4,0,0.7,0h35.7l0,0l0,0l0,0
			c1,0,1.9-0.4,2.7-1c0.1-0.1,0.2-0.1,0.3-0.3l0,0C342,62.8,342.5,61.8,342.5,60.7z M320.3,28.5l11.5,27.8h-23L320.3,28.5z"/>
	</g>
</g>
<g>
	
		<text transform="matrix(1 0 0 1 539.0977 78.7654)" class="st0" style="font-family:'Comfortaa-Bold'; font-size:72px; letter-spacing:1;">Macul 3401</text>
</g>
<g>
	<g>
		<g>
			<line class="st1" x1="1214.5" y1="658.3" x2="540.4" y2="658.3"/>
			<rect x="540.4" y="657.3" class="st0" width="674.1" height="2"/>
		</g>
	</g>
	<path class="st0" d="M792.5,715.4H553.1c-7,0-12.7-5.7-12.7-12.7v-44.4h324.3l-62.1,53.5C799.7,714.1,796.2,715.4,792.5,715.4z"/>
	<g>
		<text transform="matrix(1 0 0 1 554.0645 702.524)"><tspan x="0" y="0" style="fill:#0075C9; font-family:'Roboto-Medium'; font-size:44.8317px;">1-2-3</tspan><tspan x="105.9" y="0" style="fill:#0075C9; font-family:'Roboto-Medium'; font-size:44.8317px; letter-spacing:-2;"> </tspan><tspan x="114.3" y="0" style="fill:#0075C9; font-family:'Roboto-Medium'; font-size:44.8317px;">Dorm.</tspan></text>
	</g>
	<g>
		<path class="st2" d="M548.9,554.5c-0.5,0-0.9-0.2-1.3-0.5c-0.4-0.3-0.5-0.8-0.5-1.3V534c0-0.5,0.2-0.9,0.5-1.3
			c0.3-0.4,0.8-0.5,1.3-0.5s0.9,0.2,1.3,0.5c0.4,0.3,0.5,0.8,0.5,1.3v18.7c0,0.5-0.2,0.9-0.5,1.3
			C549.9,554.3,549.4,554.5,548.9,554.5z"/>
		<path class="st2" d="M572.1,554.5c-3.1,0-5.7-1.1-7.9-3.3c-2.2-2.2-3.3-4.8-3.3-7.9s1.1-5.7,3.3-7.9c2.2-2.2,4.8-3.3,7.9-3.3
			c2.5,0,4.8,0.8,6.8,2.3c0.4,0.3,0.6,0.7,0.7,1.2s-0.1,1-0.4,1.4c-0.3,0.4-0.7,0.6-1.2,0.7c-0.5,0.1-1-0.1-1.4-0.4
			c-1.4-1-2.9-1.5-4.6-1.5c-2,0-3.8,0.7-5.3,2.2c-1.5,1.5-2.2,3.2-2.2,5.3s0.7,3.8,2.2,5.3c1.5,1.5,3.2,2.2,5.3,2.2
			c1.9,0,3.6-0.7,5.1-1.9c0.4-0.3,0.8-0.5,1.3-0.5s0.9,0.2,1.3,0.6c0.3,0.4,0.5,0.8,0.5,1.3c0,0.5-0.2,0.9-0.6,1.3
			C577.5,553.5,575,554.5,572.1,554.5z"/>
		<path class="st2" d="M619.1,532c0.5,0,0.9,0.2,1.3,0.5c0.4,0.3,0.5,0.8,0.5,1.3v16.9h8.3c0.5,0,0.9,0.2,1.3,0.5
			c0.3,0.3,0.5,0.8,0.5,1.3s-0.2,0.9-0.5,1.3c-0.4,0.4-0.8,0.5-1.3,0.5H619c-0.5,0-0.9-0.2-1.3-0.5c-0.4-0.3-0.5-0.8-0.5-1.3v-18.7
			c0-0.5,0.2-0.9,0.5-1.3C618.1,532.2,618.6,532,619.1,532z"/>
		<g>
			<path class="st2" d="M597.7,532.2L597.7,532.2L597.7,532.2z"/>
			<path class="st2" d="M608,552.7C608,552.7,608,552.7,608,552.7c0-0.3-0.1-0.6-0.2-0.8l-1.9-4.7l0,0l-5.8-13.9
				c0-0.1,0-0.1-0.1-0.2c0,0,0,0,0-0.1s0-0.1,0-0.1s0,0-0.1-0.1l-0.1-0.1c0,0,0,0-0.1-0.1s0-0.1,0-0.1c0,0,0,0-0.1-0.1s-0.1,0-0.1,0
				s0,0-0.1-0.1l-0.1-0.1c0,0,0,0-0.1-0.1c-0.1,0-0.1,0-0.1,0c-0.1-0.1-0.2-0.1-0.3-0.1c0,0,0,0-0.1,0c-0.1,0-0.1,0-0.1,0l-0.1,0
				l-0.1,0h-0.1c0,0-0.1,0-0.1,0c0,0,0,0-0.1,0c-0.1,0-0.1,0-0.1,0l-0.1,0c-0.1,0-0.1,0-0.1,0H598c-0.1,0-0.1,0-0.1,0
				c0,0-0.1,0-0.1,0c0,0-0.1,0-0.1,0c0,0,0,0,0,0c-0.1,0-0.1,0-0.1,0.1c0,0,0,0-0.1,0l-0.1,0.1c0,0,0,0-0.1,0.1
				c-0.1,0-0.1,0.1-0.1,0.1s0,0-0.1,0.1s-0.1,0-0.1,0.1c0,0,0,0-0.1,0.1s-0.1,0.1-0.1,0.1s0,0-0.1,0.1s0,0.1,0,0.1s0,0-0.1,0.1
				l0,0.1c0,0.1-0.1,0.1-0.1,0.2l-5.8,13.9l0,0l-2,4.8c-0.2,0.5-0.2,0.9,0,1.4c0.2,0.5,0.5,0.8,1,1c0.2,0.1,0.3,0.1,0.3,0.1
				s0,0,0.1,0s0.2,0,0.3,0h15.5l0,0l0,0l0,0c0.4,0,0.8-0.2,1.2-0.4c0.1,0,0.1-0.1,0.1-0.1l0,0C607.8,553.6,608,553.2,608,552.7z
				 M598.4,538.8l5,12h-10L598.4,538.8z"/>
		</g>
		<path class="st2" d="M660.9,532c0.4,0.1,0.7,0.3,1,0.7s0.4,0.7,0.4,1.1v18.8c0,0.5-0.2,0.9-0.5,1.3c-0.4,0.4-0.8,0.5-1.3,0.5
			s-0.9-0.2-1.3-0.5c-0.3-0.3-0.5-0.8-0.5-1.3v-12.2l-5.8,9.6v0l0,0l0,0l0,0c0,0.1-0.1,0.1-0.1,0.1l0,0.1c0,0-0.1,0.1-0.1,0.1
			s0,0-0.1,0.1s-0.1,0.1-0.1,0.1c0,0-0.1,0-0.1,0.1l0,0c0,0-0.1,0-0.1,0.1c0,0,0,0,0,0l0,0h0c0,0-0.1,0-0.1,0.1s-0.1,0,0,0
			c0,0,0,0-0.1,0c-0.3,0.1-0.5,0.2-0.8,0.1h0c0,0,0,0-0.1,0c-0.1,0-0.3,0-0.4-0.1c-0.1,0-0.1,0-0.1,0c0,0,0,0-0.1,0
			c-0.1,0-0.1,0-0.1-0.1c0,0,0,0,0,0c-0.1,0-0.1,0-0.1-0.1h0l0,0l0,0c0,0-0.1,0-0.1-0.1c0,0,0,0-0.1,0s-0.1-0.1-0.1-0.1
			c0,0,0,0-0.1-0.1s-0.1-0.1-0.1-0.1c0,0,0,0-0.1-0.1s0-0.1,0-0.1c0,0,0-0.1-0.1-0.1v0c0,0,0,0,0,0v0c0,0,0,0,0,0l-5.8-9.6v12.2
			c0,0.5-0.2,0.9-0.5,1.3c-0.4,0.4-0.8,0.5-1.3,0.5s-0.9-0.2-1.3-0.5c-0.4-0.3-0.5-0.8-0.5-1.3v-18.8c0-0.4,0.1-0.8,0.4-1.1
			c0.3-0.3,0.6-0.6,1-0.7c0.4-0.1,0.8-0.1,1.2,0.1c0.4,0.2,0.7,0.4,0.9,0.8l7.7,12.7l7.7-12.7c0.2-0.3,0.5-0.6,0.9-0.8
			c0.4-0.2,0.6-0.2,0.6-0.2S660.5,531.9,660.9,532z"/>
		<g>
			<path class="st2" d="M681.3,532.2L681.3,532.2L681.3,532.2z"/>
			<path class="st2" d="M691.6,552.7C691.6,552.7,691.6,552.7,691.6,552.7c0-0.3-0.1-0.6-0.2-0.8l-1.9-4.7l0,0l-5.8-13.9
				c0-0.1,0-0.1-0.1-0.2c0,0,0,0,0-0.1s0-0.1,0-0.1s0,0-0.1-0.1l-0.1-0.1c0,0,0,0-0.1-0.1s0-0.1,0-0.1c0,0,0,0-0.1-0.1s-0.1,0-0.1,0
				s0,0-0.1-0.1l-0.1-0.1c0,0,0,0-0.1-0.1s-0.1,0-0.1,0c-0.1-0.1-0.2-0.1-0.3-0.1c0,0,0,0-0.1,0c-0.1,0-0.1,0-0.1,0l-0.1,0l-0.1,0
				h-0.1c0,0-0.1,0-0.1,0c0,0,0,0-0.1,0c-0.1,0-0.1,0-0.1,0l-0.1,0c-0.1,0-0.1,0-0.1,0h-0.1c-0.1,0-0.1,0-0.1,0c0,0-0.1,0-0.1,0
				c0,0-0.1,0-0.1,0c0,0,0,0,0,0c-0.1,0-0.1,0-0.1,0.1c0,0,0,0-0.1,0l-0.1,0.1c0,0,0,0-0.1,0.1c-0.1,0-0.1,0.1-0.1,0.1s0,0-0.1,0.1
				c0,0-0.1,0-0.1,0.1c0,0,0,0-0.1,0.1s-0.1,0.1-0.1,0.1s0,0-0.1,0.1s0,0.1,0,0.1s0,0-0.1,0.1l0,0.1c0,0.1-0.1,0.1-0.1,0.2
				l-5.9,13.9l0,0l-2,4.8c-0.2,0.5-0.2,0.9,0,1.4s0.5,0.8,1,1c0.2,0.1,0.3,0.1,0.3,0.1s0,0,0.1,0c0.1,0,0.2,0,0.3,0h15.5l0,0l0,0
				l0,0c0.4,0,0.8-0.2,1.2-0.4c0.1,0,0.1-0.1,0.1-0.1l0,0C691.4,553.6,691.6,553.2,691.6,552.7z M681.9,538.8l5,12h-10L681.9,538.8z
				"/>
		</g>
	</g>
	<g>
		<text transform="matrix(1 0 0 1 539.0977 633.2419)" class="st0" style="font-family:'Comfortaa-Bold'; font-size:72px;">CUARTA AVENIDA</text>
	</g>
</g>
<g>
	<g>
		<g>
			<line class="st1" x1="980.5" y1="941.4" x2="540.4" y2="941.4"/>
			<rect x="540.4" y="940.4" class="st0" width="440.1" height="2"/>
		</g>
	</g>
	<path class="st0" d="M792.5,998.6H553.1c-7,0-12.7-5.7-12.7-12.7v-44.4h324.3l-62.1,53.5C799.7,997.3,796.2,998.6,792.5,998.6z"/>
	<g>
		<text transform="matrix(1 0 0 1 554.0645 985.7015)"><tspan x="0" y="0" style="fill:#0075C9; font-family:'Roboto-Medium'; font-size:44.8317px;">1-2-3</tspan><tspan x="105.9" y="0" style="fill:#0075C9; font-family:'Roboto-Medium'; font-size:44.8317px; letter-spacing:-2;"> </tspan><tspan x="114.3" y="0" style="fill:#0075C9; font-family:'Roboto-Medium'; font-size:44.8317px;">Dorm.</tspan></text>
	</g>
	<g>
		<path class="st2" d="M548.9,837.7c-0.5,0-0.9-0.2-1.3-0.5c-0.4-0.3-0.5-0.8-0.5-1.3v-18.7c0-0.5,0.2-0.9,0.5-1.3
			c0.3-0.4,0.8-0.5,1.3-0.5s0.9,0.2,1.3,0.5c0.4,0.3,0.5,0.8,0.5,1.3v18.7c0,0.5-0.2,0.9-0.5,1.3
			C549.9,837.5,549.4,837.7,548.9,837.7z"/>
		<path class="st2" d="M572.1,837.7c-3.1,0-5.7-1.1-7.9-3.3c-2.2-2.2-3.3-4.8-3.3-7.9s1.1-5.7,3.3-7.9c2.2-2.2,4.8-3.3,7.9-3.3
			c2.5,0,4.8,0.8,6.8,2.3c0.4,0.3,0.6,0.7,0.7,1.2s-0.1,1-0.4,1.4c-0.3,0.4-0.7,0.6-1.2,0.7c-0.5,0.1-1-0.1-1.4-0.4
			c-1.4-1-2.9-1.5-4.6-1.5c-2,0-3.8,0.7-5.3,2.2c-1.5,1.5-2.2,3.2-2.2,5.3s0.7,3.8,2.2,5.3c1.5,1.5,3.2,2.2,5.3,2.2
			c1.9,0,3.6-0.7,5.1-1.9c0.4-0.3,0.8-0.5,1.3-0.5s0.9,0.2,1.3,0.6c0.3,0.4,0.5,0.8,0.5,1.3c0,0.5-0.2,0.9-0.6,1.3
			C577.5,836.7,575,837.7,572.1,837.7z"/>
		<path class="st2" d="M619.1,815.2c0.5,0,0.9,0.2,1.3,0.5c0.4,0.3,0.5,0.8,0.5,1.3v16.9h8.3c0.5,0,0.9,0.2,1.3,0.5
			c0.3,0.3,0.5,0.8,0.5,1.3c0,0.5-0.2,0.9-0.5,1.3c-0.4,0.4-0.8,0.5-1.3,0.5H619c-0.5,0-0.9-0.2-1.3-0.5c-0.4-0.3-0.5-0.8-0.5-1.3
			V817c0-0.5,0.2-0.9,0.5-1.3C618.1,815.4,618.6,815.2,619.1,815.2z"/>
		<g>
			<path class="st2" d="M597.7,815.4L597.7,815.4L597.7,815.4z"/>
			<path class="st2" d="M608,835.9C608,835.8,608,835.8,608,835.9c0-0.3-0.1-0.6-0.2-0.8l-1.9-4.7l0,0l-5.8-13.9
				c0-0.1,0-0.1-0.1-0.2c0,0,0,0,0-0.1c0,0,0-0.1,0-0.1s0,0-0.1-0.1l-0.1-0.1c0,0,0,0-0.1-0.1c0,0,0-0.1,0-0.1c0,0,0,0-0.1-0.1
				s-0.1,0-0.1,0s0,0-0.1-0.1l-0.1-0.1c0,0,0,0-0.1-0.1c-0.1,0-0.1,0-0.1,0c-0.1-0.1-0.2-0.1-0.3-0.1c0,0,0,0-0.1,0
				c-0.1,0-0.1,0-0.1,0l-0.1,0l-0.1,0h-0.1c0,0-0.1,0-0.1,0c0,0,0,0-0.1,0c-0.1,0-0.1,0-0.1,0l-0.1,0c-0.1,0-0.1,0-0.1,0H598
				c-0.1,0-0.1,0-0.1,0c0,0-0.1,0-0.1,0c0,0-0.1,0-0.1,0c0,0,0,0,0,0c-0.1,0-0.1,0-0.1,0.1c0,0,0,0-0.1,0l-0.1,0.1c0,0,0,0-0.1,0.1
				c-0.1,0-0.1,0.1-0.1,0.1s0,0-0.1,0.1s-0.1,0-0.1,0.1c0,0,0,0-0.1,0.1S597,816,597,816s0,0-0.1,0.1s0,0.1,0,0.1s0,0-0.1,0.1l0,0.1
				c0,0.1-0.1,0.1-0.1,0.2l-5.8,13.9l0,0l-2,4.8c-0.2,0.5-0.2,0.9,0,1.4c0.2,0.5,0.5,0.8,1,1c0.2,0.1,0.3,0.1,0.3,0.1s0,0,0.1,0
				s0.2,0,0.3,0h15.5l0,0l0,0l0,0c0.4,0,0.8-0.2,1.2-0.4c0.1,0,0.1-0.1,0.1-0.1l0,0C607.8,836.8,608,836.3,608,835.9z M598.4,821.9
				l5,12h-10L598.4,821.9z"/>
		</g>
		<path class="st2" d="M660.9,815.2c0.4,0.1,0.7,0.3,1,0.7c0.3,0.3,0.4,0.7,0.4,1.1v18.8c0,0.5-0.2,0.9-0.5,1.3
			c-0.4,0.4-0.8,0.5-1.3,0.5s-0.9-0.2-1.3-0.5c-0.3-0.3-0.5-0.8-0.5-1.3v-12.2l-5.8,9.6v0l0,0l0,0l0,0c0,0.1-0.1,0.1-0.1,0.1l0,0.1
			c0,0-0.1,0.1-0.1,0.1s0,0-0.1,0.1s-0.1,0.1-0.1,0.1c0,0-0.1,0-0.1,0.1l0,0c0,0-0.1,0-0.1,0.1c0,0,0,0,0,0l0,0h0c0,0-0.1,0-0.1,0.1
			c0,0-0.1,0,0,0c0,0,0,0-0.1,0c-0.3,0.1-0.5,0.2-0.8,0.1h0c0,0,0,0-0.1,0c-0.1,0-0.3,0-0.4-0.1c-0.1,0-0.1,0-0.1,0c0,0,0,0-0.1,0
			c-0.1,0-0.1,0-0.1-0.1c0,0,0,0,0,0c-0.1,0-0.1,0-0.1-0.1h0l0,0l0,0c0,0-0.1,0-0.1-0.1c0,0,0,0-0.1,0s-0.1-0.1-0.1-0.1
			c0,0,0,0-0.1-0.1s-0.1-0.1-0.1-0.1c0,0,0,0-0.1-0.1s0-0.1,0-0.1c0,0,0-0.1-0.1-0.1v0c0,0,0,0,0,0v0c0,0,0,0,0,0l-5.8-9.6v12.2
			c0,0.5-0.2,0.9-0.5,1.3c-0.4,0.4-0.8,0.5-1.3,0.5s-0.9-0.2-1.3-0.5c-0.4-0.3-0.5-0.8-0.5-1.3V817c0-0.4,0.1-0.8,0.4-1.1
			c0.3-0.3,0.6-0.6,1-0.7c0.4-0.1,0.8-0.1,1.2,0.1c0.4,0.2,0.7,0.4,0.9,0.8l7.7,12.7l7.7-12.7c0.2-0.3,0.5-0.6,0.9-0.8
			c0.4-0.2,0.6-0.2,0.6-0.2S660.5,815.1,660.9,815.2z"/>
		<g>
			<path class="st2" d="M681.3,815.4L681.3,815.4L681.3,815.4z"/>
			<path class="st2" d="M691.6,835.9C691.6,835.8,691.6,835.8,691.6,835.9c0-0.3-0.1-0.6-0.2-0.8l-1.9-4.7l0,0l-5.8-13.9
				c0-0.1,0-0.1-0.1-0.2c0,0,0,0,0-0.1c0,0,0-0.1,0-0.1s0,0-0.1-0.1l-0.1-0.1c0,0,0,0-0.1-0.1c0,0,0-0.1,0-0.1c0,0,0,0-0.1-0.1
				s-0.1,0-0.1,0s0,0-0.1-0.1l-0.1-0.1c0,0,0,0-0.1-0.1s-0.1,0-0.1,0c-0.1-0.1-0.2-0.1-0.3-0.1c0,0,0,0-0.1,0c-0.1,0-0.1,0-0.1,0
				l-0.1,0l-0.1,0h-0.1c0,0-0.1,0-0.1,0c0,0,0,0-0.1,0c-0.1,0-0.1,0-0.1,0l-0.1,0c-0.1,0-0.1,0-0.1,0h-0.1c-0.1,0-0.1,0-0.1,0
				c0,0-0.1,0-0.1,0c0,0-0.1,0-0.1,0c0,0,0,0,0,0c-0.1,0-0.1,0-0.1,0.1c0,0,0,0-0.1,0l-0.1,0.1c0,0,0,0-0.1,0.1
				c-0.1,0-0.1,0.1-0.1,0.1s0,0-0.1,0.1c0,0-0.1,0-0.1,0.1c0,0,0,0-0.1,0.1s-0.1,0.1-0.1,0.1s0,0-0.1,0.1s0,0.1,0,0.1s0,0-0.1,0.1
				l0,0.1c0,0.1-0.1,0.1-0.1,0.2l-5.9,13.9l0,0l-2,4.8c-0.2,0.5-0.2,0.9,0,1.4c0.2,0.5,0.5,0.8,1,1c0.2,0.1,0.3,0.1,0.3,0.1
				s0,0,0.1,0c0.1,0,0.2,0,0.3,0h15.5l0,0l0,0l0,0c0.4,0,0.8-0.2,1.2-0.4c0.1,0,0.1-0.1,0.1-0.1l0,0
				C691.4,836.8,691.6,836.3,691.6,835.9z M681.9,821.9l5,12h-10L681.9,821.9z"/>
		</g>
	</g>
	<g>
		
			<text transform="matrix(1 0 0 1 539.0977 916.4196)" class="st0" style="font-family:'Comfortaa-Bold'; font-size:72px; letter-spacing:4;">exequiel</text>
	</g>
</g>
<g>
	<g>
		<g>
			<line class="st1" x1="1052.4" y1="365.3" x2="540.4" y2="365.3"/>
			<rect x="540.4" y="364.3" class="st0" width="512.1" height="2"/>
		</g>
	</g>
	<path class="st0" d="M792.5,422.5H553.1c-7,0-12.7-5.7-12.7-12.7v-44.4h324.3l-62.1,53.5C799.7,421.2,796.2,422.5,792.5,422.5z"/>
	<g>
		<text transform="matrix(1 0 0 1 554.0645 409.57)"><tspan x="0" y="0" style="fill:#0075C9; font-family:'Roboto-Medium'; font-size:44.8317px;">1-2-3</tspan><tspan x="105.9" y="0" style="fill:#0075C9; font-family:'Roboto-Medium'; font-size:44.8317px; letter-spacing:-2;"> </tspan><tspan x="114.3" y="0" style="fill:#0075C9; font-family:'Roboto-Medium'; font-size:44.8317px;">Dorm.</tspan></text>
	</g>
	<g>
		<path class="st2" d="M548.9,261.5c-0.5,0-0.9-0.2-1.3-0.5c-0.4-0.3-0.5-0.8-0.5-1.3V241c0-0.5,0.2-0.9,0.5-1.3
			c0.3-0.4,0.8-0.5,1.3-0.5s0.9,0.2,1.3,0.5c0.4,0.3,0.5,0.8,0.5,1.3v18.7c0,0.5-0.2,0.9-0.5,1.3
			C549.9,261.4,549.4,261.5,548.9,261.5z"/>
		<path class="st2" d="M572.1,261.5c-3.1,0-5.7-1.1-7.9-3.3c-2.2-2.2-3.3-4.8-3.3-7.9c0-3.1,1.1-5.7,3.3-7.9
			c2.2-2.2,4.8-3.3,7.9-3.3c2.5,0,4.8,0.8,6.8,2.3c0.4,0.3,0.6,0.7,0.7,1.2c0.1,0.5-0.1,1-0.4,1.4c-0.3,0.4-0.7,0.6-1.2,0.7
			s-1-0.1-1.4-0.4c-1.4-1-2.9-1.5-4.6-1.5c-2,0-3.8,0.7-5.3,2.2c-1.5,1.5-2.2,3.2-2.2,5.3s0.7,3.8,2.2,5.3c1.5,1.5,3.2,2.2,5.3,2.2
			c1.9,0,3.6-0.7,5.1-1.9c0.4-0.3,0.8-0.5,1.3-0.5c0.5,0,0.9,0.2,1.3,0.6c0.3,0.4,0.5,0.8,0.5,1.3c0,0.5-0.2,0.9-0.6,1.3
			C577.5,260.5,575,261.5,572.1,261.5z"/>
		<path class="st2" d="M619.1,239.1c0.5,0,0.9,0.2,1.3,0.5c0.4,0.3,0.5,0.8,0.5,1.3v16.9h8.3c0.5,0,0.9,0.2,1.3,0.5
			c0.3,0.3,0.5,0.8,0.5,1.3c0,0.5-0.2,0.9-0.5,1.3c-0.4,0.4-0.8,0.5-1.3,0.5H619c-0.5,0-0.9-0.2-1.3-0.5c-0.4-0.3-0.5-0.8-0.5-1.3
			v-18.7c0-0.5,0.2-0.9,0.5-1.3C618.1,239.2,618.6,239.1,619.1,239.1z"/>
		<g>
			<path class="st2" d="M597.7,239.3L597.7,239.3L597.7,239.3z"/>
			<path class="st2" d="M608,259.7C608,259.7,608,259.7,608,259.7c0-0.3-0.1-0.6-0.2-0.8l-1.9-4.7l0,0l-5.8-13.9
				c0-0.1,0-0.1-0.1-0.2c0,0,0,0,0-0.1c0,0,0-0.1,0-0.1s0,0-0.1-0.1l-0.1-0.1c0,0,0,0-0.1-0.1c0,0,0-0.1,0-0.1c0,0,0,0-0.1-0.1
				c0,0-0.1,0-0.1,0s0,0-0.1-0.1l-0.1-0.1c0,0,0,0-0.1-0.1c-0.1,0-0.1,0-0.1,0c-0.1-0.1-0.2-0.1-0.3-0.1c0,0,0,0-0.1,0
				c-0.1,0-0.1,0-0.1,0l-0.1,0l-0.1,0h-0.1c0,0-0.1,0-0.1,0c0,0,0,0-0.1,0c-0.1,0-0.1,0-0.1,0l-0.1,0c-0.1,0-0.1,0-0.1,0H598
				c-0.1,0-0.1,0-0.1,0c0,0-0.1,0-0.1,0c0,0-0.1,0-0.1,0c0,0,0,0,0,0c-0.1,0-0.1,0-0.1,0.1c0,0,0,0-0.1,0l-0.1,0.1c0,0,0,0-0.1,0.1
				c-0.1,0-0.1,0.1-0.1,0.1s0,0-0.1,0.1c0,0-0.1,0-0.1,0.1c0,0,0,0-0.1,0.1c0,0-0.1,0.1-0.1,0.1s0,0-0.1,0.1c0,0,0,0.1,0,0.1
				s0,0-0.1,0.1l0,0.1c0,0.1-0.1,0.1-0.1,0.2l-5.8,13.9l0,0l-2,4.8c-0.2,0.5-0.2,0.9,0,1.4c0.2,0.5,0.5,0.8,1,1
				c0.2,0.1,0.3,0.1,0.3,0.1s0,0,0.1,0s0.2,0,0.3,0h15.5l0,0l0,0l0,0c0.4,0,0.8-0.2,1.2-0.4c0.1,0,0.1-0.1,0.1-0.1l0,0
				C607.8,260.6,608,260.2,608,259.7z M598.4,245.8l5,12h-10L598.4,245.8z"/>
		</g>
		<path class="st2" d="M660.9,239.1c0.4,0.1,0.7,0.3,1,0.7s0.4,0.7,0.4,1.1v18.8c0,0.5-0.2,0.9-0.5,1.3c-0.4,0.4-0.8,0.5-1.3,0.5
			s-0.9-0.2-1.3-0.5c-0.3-0.3-0.5-0.8-0.5-1.3v-12.2l-5.8,9.6v0l0,0l0,0l0,0c0,0.1-0.1,0.1-0.1,0.1l0,0.1c0,0-0.1,0.1-0.1,0.1
			s0,0-0.1,0.1s-0.1,0.1-0.1,0.1c0,0-0.1,0-0.1,0.1l0,0c0,0-0.1,0-0.1,0.1c0,0,0,0,0,0l0,0h0c0,0-0.1,0-0.1,0.1s-0.1,0,0,0
			c0,0,0,0-0.1,0c-0.3,0.1-0.5,0.2-0.8,0.1h0c0,0,0,0-0.1,0c-0.1,0-0.3,0-0.4-0.1c-0.1,0-0.1,0-0.1,0c0,0,0,0-0.1,0
			c-0.1,0-0.1,0-0.1-0.1c0,0,0,0,0,0c-0.1,0-0.1,0-0.1-0.1h0l0,0l0,0c0,0-0.1,0-0.1-0.1c0,0,0,0-0.1,0s-0.1-0.1-0.1-0.1
			c0,0,0,0-0.1-0.1s-0.1-0.1-0.1-0.1c0,0,0,0-0.1-0.1c0,0,0-0.1,0-0.1c0,0,0-0.1-0.1-0.1v0c0,0,0,0,0,0v0c0,0,0,0,0,0l-5.8-9.6v12.2
			c0,0.5-0.2,0.9-0.5,1.3c-0.4,0.4-0.8,0.5-1.3,0.5s-0.9-0.2-1.3-0.5c-0.4-0.3-0.5-0.8-0.5-1.3v-18.8c0-0.4,0.1-0.8,0.4-1.1
			c0.3-0.3,0.6-0.6,1-0.7c0.4-0.1,0.8-0.1,1.2,0.1c0.4,0.2,0.7,0.4,0.9,0.8l7.7,12.7l7.7-12.7c0.2-0.3,0.5-0.6,0.9-0.8
			c0.4-0.2,0.6-0.2,0.6-0.2S660.5,239,660.9,239.1z"/>
		<g>
			<path class="st2" d="M681.3,239.3L681.3,239.3L681.3,239.3z"/>
			<path class="st2" d="M691.6,259.7C691.6,259.7,691.6,259.7,691.6,259.7c0-0.3-0.1-0.6-0.2-0.8l-1.9-4.7l0,0l-5.8-13.9
				c0-0.1,0-0.1-0.1-0.2c0,0,0,0,0-0.1c0,0,0-0.1,0-0.1s0,0-0.1-0.1l-0.1-0.1c0,0,0,0-0.1-0.1c0,0,0-0.1,0-0.1c0,0,0,0-0.1-0.1
				c0,0-0.1,0-0.1,0s0,0-0.1-0.1l-0.1-0.1c0,0,0,0-0.1-0.1c-0.1,0-0.1,0-0.1,0c-0.1-0.1-0.2-0.1-0.3-0.1c0,0,0,0-0.1,0
				c-0.1,0-0.1,0-0.1,0l-0.1,0l-0.1,0h-0.1c0,0-0.1,0-0.1,0c0,0,0,0-0.1,0c-0.1,0-0.1,0-0.1,0l-0.1,0c-0.1,0-0.1,0-0.1,0h-0.1
				c-0.1,0-0.1,0-0.1,0c0,0-0.1,0-0.1,0c0,0-0.1,0-0.1,0c0,0,0,0,0,0c-0.1,0-0.1,0-0.1,0.1c0,0,0,0-0.1,0l-0.1,0.1c0,0,0,0-0.1,0.1
				c-0.1,0-0.1,0.1-0.1,0.1s0,0-0.1,0.1c0,0-0.1,0-0.1,0.1c0,0,0,0-0.1,0.1c0,0-0.1,0.1-0.1,0.1s0,0-0.1,0.1c0,0,0,0.1,0,0.1
				s0,0-0.1,0.1l0,0.1c0,0.1-0.1,0.1-0.1,0.2l-5.9,13.9l0,0l-2,4.8c-0.2,0.5-0.2,0.9,0,1.4c0.2,0.5,0.5,0.8,1,1
				c0.2,0.1,0.3,0.1,0.3,0.1s0,0,0.1,0c0.1,0,0.2,0,0.3,0h15.5l0,0l0,0l0,0c0.4,0,0.8-0.2,1.2-0.4c0.1,0,0.1-0.1,0.1-0.1l0,0
				C691.4,260.6,691.6,260.2,691.6,259.7z M681.9,245.8l5,12h-10L681.9,245.8z"/>
		</g>
	</g>
	<g>
		<text transform="matrix(1 0 0 1 539.0977 340.288)" class="st0" style="font-family:'Comfortaa-Bold'; font-size:72px;">BARCELONA</text>
	</g>
</g>
</svg>
