<svg id="Capa_1" data-name="Capa 1" xmlns="http://www.w3.org/2000/svg" viewBox="0 0 394.52 55.6"><defs><style>.cls-1{fill:#fff;}</style></defs><title>Logo_Icalma_Inmob</title><path class="cls-1" d="M1.84,46a1.79,1.79,0,0,1-1.3-.54A1.68,1.68,0,0,1,0,44.13V25.28A1.79,1.79,0,0,1,.54,24a1.68,1.68,0,0,1,1.3-.54,1.79,1.79,0,0,1,1.3.54,1.68,1.68,0,0,1,.54,1.3V44.13a1.79,1.79,0,0,1-.54,1.3A1.68,1.68,0,0,1,1.84,46Z"/><path class="cls-1" d="M25.19,46A11.25,11.25,0,0,1,13.91,34.69,11.31,11.31,0,0,1,25.19,23.38a11,11,0,0,1,6.88,2.34,1.76,1.76,0,0,1,.7,1.24,1.85,1.85,0,0,1-.38,1.39,1.76,1.76,0,0,1-1.24.7,1.85,1.85,0,0,1-1.39-.38,7.53,7.53,0,0,0-9.92.67,7.27,7.27,0,0,0-2.22,5.36A7.15,7.15,0,0,0,19.84,40a7.25,7.25,0,0,0,5.32,2.22,7.4,7.4,0,0,0,5.1-2,1.74,1.74,0,0,1,1.33-.48,1.86,1.86,0,0,1,1.3.6,1.74,1.74,0,0,1,.48,1.33,1.86,1.86,0,0,1-.6,1.3A10.79,10.79,0,0,1,25.19,46Z"/><path class="cls-1" d="M72.56,23.31a1.79,1.79,0,0,1,1.3.54,1.68,1.68,0,0,1,.54,1.3V42.23h8.37a1.92,1.92,0,0,1,1.33.54,1.84,1.84,0,0,1-1.33,3.14H72.53a1.79,1.79,0,0,1-1.3-.54,1.68,1.68,0,0,1-.54-1.3V25.18a1.79,1.79,0,0,1,.54-1.3A1.82,1.82,0,0,1,72.56,23.31Z"/><path class="cls-1" d="M61.41,44.16V44.1a1.91,1.91,0,0,0-.16-.76l-2-4.75h0l-5.83-14a.42.42,0,0,0-.1-.16.1.1,0,0,0,0-.06.1.1,0,0,1,0-.06l-.06-.06-.06-.06-.06-.06a.1.1,0,0,1,0-.06s0,0-.06-.06a.1.1,0,0,0-.06,0,.39.39,0,0,0-.1-.06l-.06-.06a.39.39,0,0,0-.1-.06l-.06,0a1.14,1.14,0,0,0-.35-.13s0,0-.06,0a.25.25,0,0,0-.1,0l-.1,0-.1,0h-.35l-.06,0c-.06,0-.1,0-.13,0h-.06a.25.25,0,0,1-.1,0s-.06,0-.13,0a.11.11,0,0,0-.06,0s0,0,0,0-.1,0-.13.06a.14.14,0,0,1-.1,0l-.06.06-.06.06c-.06,0-.06.06-.06.06l-.06.06s-.06,0-.06.06l-.06.06-.06.06-.06.06a.1.1,0,0,0,0,.06l-.06.06,0,.06c0,.06-.06.1-.06.16l-5.89,14h0l-2,4.82a1.85,1.85,0,0,0,0,1.43,1.78,1.78,0,0,0,1,1,2.59,2.59,0,0,0,.35.13h16a1.8,1.8,0,0,0,1.17-.44.25.25,0,0,0,.13-.13h0A1.78,1.78,0,0,0,61.41,44.16Zm-9.7-14,5,12.14h-10Z"/><path class="cls-1" d="M114.77,23.31a2,2,0,0,1,1,.67,1.74,1.74,0,0,1,.38,1.11v19a1.84,1.84,0,0,1-1.87,1.84,1.92,1.92,0,0,1-1.33-.54,1.79,1.79,0,0,1-.54-1.3V31.77L106.5,41.5v0l0,0h0l0,0c0,.06-.06.1-.06.13l0,.06-.06.06-.06.06-.06.06s-.06,0-.1.06l0,0s-.06,0-.1.06a0,0,0,0,1,0,0h0s-.06,0-.1.06-.06,0,0,0a.25.25,0,0,0-.1,0,1.61,1.61,0,0,1-.76.13h0s0,0-.06,0a1.85,1.85,0,0,1-.41-.06c-.06,0-.06,0-.06,0h-.06c-.06,0-.1,0-.13-.06l0,0c-.06,0-.1,0-.13-.06h0l0,0s-.06,0-.1-.06a.1.1,0,0,1-.06,0s-.06-.06-.1-.06l-.06-.06-.06-.06s0,0-.06-.06a.1.1,0,0,1,0-.06s0-.06-.06-.13v0h0v0a0,0,0,0,0,0,0l-5.89-9.73V44a1.86,1.86,0,0,1-3.17,1.3A1.68,1.68,0,0,1,93.7,44V25.12A1.74,1.74,0,0,1,94.08,24a1.63,1.63,0,0,1,1-.67,1.85,1.85,0,0,1,1.17.06,2,2,0,0,1,.92.76L104.92,37l7.76-12.83a1.89,1.89,0,0,1,.89-.76c.38-.16.57-.22.57-.22S114.36,23.22,114.77,23.31Z"/><path class="cls-1" d="M145.51,43.34l-2-4.75-5.83-14c0-.06,0-.1-.06-.16a.1.1,0,0,0,0-.06.1.1,0,0,1,0-.06l-.06-.06-.06-.06-.06-.06a.1.1,0,0,1,0-.06s0,0-.06-.06a.1.1,0,0,0-.06,0l-.06-.06-.06-.06a.39.39,0,0,0-.1-.06l-.06,0a1.13,1.13,0,0,0-.35-.13s0,0-.06,0a.25.25,0,0,0-.1,0l-.06,0-.1,0h-.35l-.06,0c-.06,0-.1,0-.13,0h-.06a.24.24,0,0,1-.1,0s-.06,0-.13,0a.11.11,0,0,0-.06,0s0,0,0,0-.1,0-.13.06a.14.14,0,0,1-.1,0l-.06.06a.39.39,0,0,1-.1.06c-.06,0-.06.06-.06.06a.39.39,0,0,1-.1.06s-.06,0-.06.06l-.06.06-.06.06-.06.06a.1.1,0,0,0,0,.06l-.06.06,0,.06c0,.06-.06.1-.06.16l-5.93,14-2,4.82a1.85,1.85,0,0,0,0,1.43,1.77,1.77,0,0,0,1,1,2.58,2.58,0,0,0,.35.13h16a1.8,1.8,0,0,0,1.17-.44.25.25,0,0,0,.13-.13,1.58,1.58,0,0,0,.57-1.24V44.1A1.92,1.92,0,0,0,145.51,43.34ZM131,42.26l5-12.14,5,12.14Z"/><path class="cls-1" d="M84.74,13.55a1.59,1.59,0,0,1-1.08-.41L72.83,3.83,62,13.14a1.64,1.64,0,1,1-2.12-2.5L71.78.4a1.64,1.64,0,0,1,2.15,0L85.82,10.67A1.62,1.62,0,0,1,86,13,1.58,1.58,0,0,1,84.74,13.55Z"/><path class="cls-1" d="M189.1,45.91a1.09,1.09,0,0,1-.33-.8V24.71a1.08,1.08,0,0,1,.33-.81,1.12,1.12,0,0,1,1.93.81v20.4a1.12,1.12,0,0,1-.32.8,1.14,1.14,0,0,1-1.61,0Z"/><path class="cls-1" d="M197.16,45.92a1.1,1.1,0,0,1-.32-.81V24.71a1.13,1.13,0,0,1,2-.73l13.87,18.22V24.71a1.08,1.08,0,0,1,.33-.81,1.12,1.12,0,0,1,.8-.32A1.09,1.09,0,0,1,215,24.71v20.4a1.11,1.11,0,0,1-.32.8,1.07,1.07,0,0,1-.81.33,1,1,0,0,1-.84-.38L199.1,27.64V45.11a1.12,1.12,0,0,1-.32.8,1.08,1.08,0,0,1-.81.33A1.1,1.1,0,0,1,197.16,45.92Z"/><path class="cls-1" d="M243.12,23.9a1.1,1.1,0,0,1,.32.81v20.4a1.11,1.11,0,0,1-.32.8,1,1,0,0,1-.78.33,1.12,1.12,0,0,1-.83-.33,1.09,1.09,0,0,1-.33-.8V28.68l-8.07,16.48a1.1,1.1,0,0,1-1,.55,1.08,1.08,0,0,1-1-.7l-8-16.07V45.11a1.11,1.11,0,0,1-.32.8,1.07,1.07,0,0,1-.81.33,1.14,1.14,0,0,1-1.13-1.13V24.71a1.08,1.08,0,0,1,.33-.81,1.17,1.17,0,0,1,1.81.26l9.29,18.45,9.11-18.45a1.11,1.11,0,0,1,1-.58A1.07,1.07,0,0,1,243.12,23.9Z"/><path class="cls-1" d="M253.77,45a10.82,10.82,0,0,1-4.13-4.16,11.94,11.94,0,0,1-1.5-6,11.86,11.86,0,0,1,1.5-5.95,10.86,10.86,0,0,1,4.13-4.15,12.45,12.45,0,0,1,11.88,0,10.84,10.84,0,0,1,4.15,4.15,11.88,11.88,0,0,1,1.49,5.95,12,12,0,0,1-1.49,6A10.8,10.8,0,0,1,265.65,45a12.45,12.45,0,0,1-11.88,0Zm10.72-1.89a9,9,0,0,0,3.35-3.41,10.13,10.13,0,0,0,0-9.63,9,9,0,0,0-3.35-3.41,9.81,9.81,0,0,0-9.58,0,9,9,0,0,0-3.35,3.41,10.13,10.13,0,0,0,0,9.63,9,9,0,0,0,3.35,3.41,9.81,9.81,0,0,0,9.58,0Z"/><path class="cls-1" d="M276.31,45.93a1,1,0,0,1-.35-.83V24.71a1.09,1.09,0,0,1,1.13-1.13h7.05a6.66,6.66,0,0,1,3.15.74,5.77,5.77,0,0,1,2.23,2,5.36,5.36,0,0,1,.83,2.93,4.79,4.79,0,0,1-.83,2.76,5.49,5.49,0,0,1-2.22,1.89,6,6,0,0,1,3.16,2,5.56,5.56,0,0,1,1.16,3.61,6.69,6.69,0,0,1-.9,3.47,6.31,6.31,0,0,1-2.48,2.38,7.47,7.47,0,0,1-3.61.86h-7.4A1.36,1.36,0,0,1,276.31,45.93ZM284.14,33A4.16,4.16,0,0,0,287,32a3.5,3.5,0,0,0,1.12-2.74,3.23,3.23,0,0,0-1.1-2.61,4.36,4.36,0,0,0-2.9-.93h-5.92V33Zm.49,11a4.84,4.84,0,0,0,3.44-1.23,4.29,4.29,0,0,0,1.32-3.29,4,4,0,0,0-1.32-3.15,5,5,0,0,0-3.44-1.17h-6.41v8.85Z"/><path class="cls-1" d="M296.46,45.91a1.09,1.09,0,0,1-.33-.8V24.71a1.08,1.08,0,0,1,.33-.81,1.12,1.12,0,0,1,.8-.32,1.09,1.09,0,0,1,1.13,1.13v20.4a1.11,1.11,0,0,1-.32.8,1.07,1.07,0,0,1-.81.33A1.09,1.09,0,0,1,296.46,45.91Z"/><path class="cls-1" d="M304.53,45.91a1.09,1.09,0,0,1-.33-.8V24.71a1.14,1.14,0,0,1,1.13-1.13,1.09,1.09,0,0,1,1.13,1.13V44.09H317.8a1.13,1.13,0,0,1,.81.3,1.09,1.09,0,0,1,0,1.54,1.13,1.13,0,0,1-.81.3H305.33A1.09,1.09,0,0,1,304.53,45.91Z"/><path class="cls-1" d="M322.89,45.91a1.09,1.09,0,0,1-.33-.8V24.71a1.08,1.08,0,0,1,.33-.81,1.12,1.12,0,0,1,1.93.81v20.4a1.12,1.12,0,0,1-.32.8,1.14,1.14,0,0,1-1.61,0Z"/><path class="cls-1" d="M347.75,45.11a1.14,1.14,0,0,1-1.13,1.13,1.1,1.1,0,0,1-1.07-.7l-1.94-4.7H332.37l-1.94,4.7a1,1,0,0,1-1,.7,1,1,0,0,1-.8-.33,1.14,1.14,0,0,1-.3-.8,1.26,1.26,0,0,1,.09-.49l8.53-20.25a1.12,1.12,0,0,1,1.1-.78,1.07,1.07,0,0,1,1.07.78l8.56,20.28A.92.92,0,0,1,347.75,45.11ZM333.18,38.9h9.63L338,27.26Z"/><path class="cls-1" d="M365.45,45.28a.85.85,0,0,1-.32.7,1.29,1.29,0,0,1-.84.26,1.07,1.07,0,0,1-.58-.15,1.26,1.26,0,0,1-.41-.44l-5.22-8.3h-4.79v7.75a1.13,1.13,0,1,1-2.26,0V24.71a1.09,1.09,0,0,1,1.13-1.13h5.43a7.87,7.87,0,0,1,3.77.88,6.55,6.55,0,0,1,2.6,2.48,7,7,0,0,1,.94,3.63,6.51,6.51,0,0,1-4.47,6.33l4.76,7.6A1.55,1.55,0,0,1,365.45,45.28Zm-7.86-10.1a5.73,5.73,0,0,0,2.63-.59A4.49,4.49,0,0,0,362,33a4.4,4.4,0,0,0,.65-2.38,4.81,4.81,0,0,0-.65-2.5,4.49,4.49,0,0,0-1.81-1.71,5.6,5.6,0,0,0-2.64-.61h-4.29v9.43Z"/><path class="cls-1" d="M369.29,45.91a1.09,1.09,0,0,1-.33-.8V24.71a1.08,1.08,0,0,1,.33-.81,1.12,1.12,0,0,1,1.93.81v20.4a1.12,1.12,0,0,1-.32.8,1.14,1.14,0,0,1-1.61,0Z"/><path class="cls-1" d="M394.14,45.11A1.14,1.14,0,0,1,393,46.24a1.1,1.1,0,0,1-1.07-.7L390,40.84H378.76l-1.94,4.7a1,1,0,0,1-1,.7,1,1,0,0,1-.8-.33,1.14,1.14,0,0,1-.3-.8,1.26,1.26,0,0,1,.09-.49l8.53-20.25a1.12,1.12,0,0,1,1.1-.78,1.07,1.07,0,0,1,1.07.78L394,44.64A.92.92,0,0,1,394.14,45.11ZM379.58,38.9h9.63l-4.82-11.64Z"/><rect class="cls-1" x="165.01" y="13.55" width="1.51" height="42.05"/></svg>