<?xml version="1.0" encoding="utf-8"?>
<!-- Generator: Adobe Illustrator 21.1.0, SVG Export Plug-In . SVG Version: 6.00 Build 0)  -->
<svg version="1.1" id="Layer_1" xmlns="http://www.w3.org/2000/svg" xmlns:xlink="http://www.w3.org/1999/xlink" x="0px" y="0px"
	 viewBox="0 0 140.5 113" style="enable-background:new 0 0 140.5 113;" xml:space="preserve">
<style type="text/css">
	.st0{fill:#D00A2C;}
</style>
<path class="st0" d="M87.4,56.3L70,87.9L52.5,56.3L70,24.8L87.4,56.3z M122.6,56.3l-17.4,31.5L87.7,56.3l17.4-31.5L122.6,56.3z
	 M52.3,56.3L34.9,87.9L17.4,56.3l17.4-31.5L52.3,56.3z M70.2,0c38.8,0,70.2,25.3,70.2,56.5c0,31.2-31.4,56.5-70.2,56.5
	c-35,0-64-20.6-69.4-47.6C0.3,62.7,0,59.6,0,56.5C0,30.3,21.9,9.8,48.4,2.8C55.4,0.9,62.6,0,70.2,0 M5.3,58.7
	c1.3,25.6,26.7,46.3,58.9,48.6c2.7,0.2,5.4,0.3,8.2,0.2c31.9-0.9,58-20.5,61.6-44.9c0.4-2.8,0.6-5.6,0.6-8.4
	c-0.1-5.4-1.2-10.5-3.4-15.2c-8.2-17.7-28.7-30.8-53.4-33c-3.2-0.3-6.5-0.4-9.8-0.3c-4.4,0.1-8.7,0.6-12.9,1.3
	c-20,3.3-46,18.6-49.5,44.1C5.2,53.6,5.3,56.7,5.3,58.7"/>
</svg>
